<?xml version="1.0" encoding="UTF-8" standalone="no"?>
<svg
   xmlns:dc="http://purl.org/dc/elements/1.1/"
   xmlns:cc="http://creativecommons.org/ns#"
   xmlns:rdf="http://www.w3.org/1999/02/22-rdf-syntax-ns#"
   xmlns:svg="http://www.w3.org/2000/svg"
   xmlns="http://www.w3.org/2000/svg"
   viewBox="0 0 1600 1066.6667"
   height="1066.6667"
   width="1600"
   xml:space="preserve"
   id="svg2"
   version="1.1"><metadata
     id="metadata8"><rdf:RDF><cc:Work
         rdf:about=""><dc:format>image/svg+xml</dc:format><dc:type
           rdf:resource="http://purl.org/dc/dcmitype/StillImage" /></cc:Work></rdf:RDF></metadata><defs
     id="defs6" /><g
     transform="matrix(1.3333333,0,0,-1.3333333,0,1066.6667)"
     id="g10"><g
       transform="scale(0.1)"
       id="g12"><path
         id="path14"
         style="fill:#57a863;fill-opacity:1;fill-rule:nonzero;stroke:none"
         d="M 0,8000 H 12000 V 0 H 0 v 8000" /><path
         id="path16"
         style="fill:#ed5565;fill-opacity:1;fill-rule:nonzero;stroke:none"
         d="M 0,8000 H 12000 V 2666.67 H 0 V 8000" /><path
         id="path18"
         style="fill:#3bafda;fill-opacity:1;fill-rule:nonzero;stroke:none"
         d="M 0,8000 H 12000 V 5333.33 H 0 V 8000" /><path
         id="path20"
         style="fill:#f5f7fa;fill-opacity:1;fill-rule:nonzero;stroke:none"
         d="m 5597.14,5200 c 667.48,0 1208.57,-537.26 1208.57,-1200 0,-662.74 -541.09,-1200 -1208.57,-1200 -667.47,0 -1208.57,537.26 -1208.57,1200 0,662.74 541.1,1200 1208.57,1200" /><path
         id="path22"
         style="fill:#ed5565;fill-opacity:1;fill-rule:nonzero;stroke:none"
         d="m 5865.71,5000 c 556.23,0 1007.15,-447.71 1007.15,-1000 0,-552.29 -450.92,-1000 -1007.15,-1000 -556.23,0 -1007.14,447.71 -1007.14,1000 0,552.29 450.91,1000 1007.14,1000" /><path
         id="path24"
         style="fill:#f5f7fa;fill-opacity:1;fill-rule:nonzero;stroke:none"
         d="m 6940,4666.67 128.47,-358.71 346.3,163.44 -164.61,-343.84 361.27,-127.56 -361.27,-127.56 164.61,-343.84 -346.3,163.44 -128.47,-358.71 -128.47,358.71 -346.3,-163.44 164.61,343.84 -361.27,127.56 361.27,127.56 -164.61,343.84 346.3,-163.44 128.47,358.71" /></g></g></svg>