<?xml version="1.0" encoding="UTF-8" standalone="no"?>
<!-- Created with Inkscape (http://www.inkscape.org/) -->

<svg
   version="1.1"
   id="svg2"
   width="1600"
   height="1066.6667"
   viewBox="0 0 1600 1066.6667"
   sodipodi:docname="brazil_flag.eps"
   xmlns:inkscape="http://www.inkscape.org/namespaces/inkscape"
   xmlns:sodipodi="http://sodipodi.sourceforge.net/DTD/sodipodi-0.dtd"
   xmlns="http://www.w3.org/2000/svg"
   xmlns:svg="http://www.w3.org/2000/svg">
  <defs
     id="defs6" />
  <sodipodi:namedview
     id="namedview4"
     pagecolor="#ffffff"
     bordercolor="#000000"
     borderopacity="0.25"
     inkscape:showpageshadow="2"
     inkscape:pageopacity="0.0"
     inkscape:pagecheckerboard="0"
     inkscape:deskcolor="#d1d1d1" />
  <g
     id="g8"
     inkscape:groupmode="layer"
     inkscape:label="ink_ext_XXXXXX"
     transform="matrix(1.3333333,0,0,-1.3333333,0,1066.6667)">
    <g
       id="g10"
       transform="scale(0.1)">
      <path
         d="M 12000,0 H 0 V 8000 H 12000 V 0"
         style="fill:#faf9f8;fill-opacity:1;fill-rule:evenodd;stroke:none"
         id="path12" />
      <path
         d="M 11.2891,8192.1 H 11988.7 V -192.102 H 11.2891 V 8192.1"
         style="fill:#299540;fill-opacity:1;fill-rule:evenodd;stroke:none"
         id="path14" />
      <path
         d="M 6000,7174.02 1029.37,4000 6000,825.98 10970.6,4000 6000,7174.02"
         style="fill:#f3bf0a;fill-opacity:1;fill-rule:evenodd;stroke:none"
         id="path16" />
      <path
         d="m 5995.57,6091.74 c 1155.23,0 2091.74,-936.51 2091.74,-2091.74 0,-1155.23 -936.51,-2091.74 -2091.74,-2091.74 -1155.24,0 -2091.74,936.51 -2091.74,2091.74 0,1155.23 936.5,2091.74 2091.74,2091.74"
         style="fill:#292a6a;fill-opacity:1;fill-rule:evenodd;stroke:none"
         id="path18" />
      <path
         d="m 4247.94,3386.64 25.39,-63.84 68.4,-4.32 -52.82,-43.83 17,-66.36 -57.97,36.65 -57.97,-36.65 17.01,66.36 -52.82,43.83 68.51,4.32 z m 47.19,1069.1 30.07,-75.58 81.08,-5.15 -62.52,-51.86 20.12,-78.81 -68.75,43.48 -68.63,-43.48 20.12,78.81 -62.52,51.86 81.09,5.15 z m 172.36,-870.28 29.94,-75.58 81.21,-5.15 -62.64,-51.86 20.12,-78.81 -68.63,43.48 -68.63,-43.48 20.12,78.81 -62.64,51.86 81.21,5.15 z m 192,84.32 16.17,-40.6 43.59,-2.88 -33.65,-27.9 10.9,-42.28 -37.01,23.35 -36.89,-23.35 10.78,42.28 -33.66,27.9 43.72,2.88 z m 156.06,-534.55 21.56,-54.38 58.33,-3.71 -45.03,-37.25 14.49,-56.65 -49.35,31.26 -49.46,-31.26 14.49,56.65 -45.04,37.25 58.33,3.71 z m 75.7,235 25.39,-63.72 68.39,-4.43 -52.82,-43.72 17.01,-66.48 -57.97,36.77 -57.85,-36.77 16.89,66.48 -52.7,43.72 68.39,4.43 z m 229.73,-417.06 29.94,-75.57 81.21,-5.27 -62.64,-51.87 20.12,-78.69 -68.63,43.48 -68.75,-43.48 20.24,78.69 -62.64,51.87 81.08,5.27 z m 61.2,1056.53 25.27,-63.84 68.39,-4.31 -52.7,-43.84 16.89,-66.47 -57.85,36.77 -57.97,-36.77 17.01,66.47 -52.82,43.84 68.39,4.31 z m 543.3,-499.46 21.56,-54.37 58.33,-3.72 -45.04,-37.25 14.49,-56.65 -49.34,31.26 -49.47,-31.26 14.49,56.65 -45.03,37.25 58.45,3.72 z m 152.83,-132.11 16.17,-40.72 43.6,-2.76 -33.66,-27.9 10.9,-42.4 -37.01,23.47 -36.89,-23.47 10.78,42.4 -33.66,27.9 43.72,2.76 z m 132.11,-999.99 11.5,-28.99 31.14,-2.03 -23.95,-19.89 7.66,-30.3 -26.35,16.77 -26.35,-16.77 7.67,30.3 -23.96,19.89 31.14,2.03 z m -6.83,756.61 29.95,-75.58 81.2,-5.15 -62.64,-51.86 20.12,-78.81 -68.63,43.48 -68.63,-43.48 20.12,78.81 -62.64,51.86 81.21,5.15 z m 12.22,593.36 25.27,-63.72 68.51,-4.43 -52.82,-43.72 17.01,-66.47 -57.97,36.65 -57.97,-36.65 17.01,66.47 -52.82,43.72 68.39,4.43 z m 419.93,-839.02 21.56,-54.37 58.33,-3.72 -44.92,-37.25 14.5,-56.65 -49.47,31.26 -49.35,-31.26 14.49,56.65 -45.03,37.25 58.33,3.72 z m 55.45,1319.08 21.68,-54.26 58.33,-3.83 -45.03,-37.25 14.49,-56.66 -49.47,31.27 -49.34,-31.27 14.49,56.66 -45.04,37.25 58.34,3.83 z m 116.42,-1563.3 25.28,-63.84 68.51,-4.31 -52.82,-43.83 17.01,-66.36 -57.98,36.65 -57.97,-36.65 17.01,66.36 -52.82,43.83 68.39,4.31 z m 33.06,2199.06 30.07,-75.58 81.08,-5.15 -62.52,-51.86 20.12,-78.69 -68.75,43.48 -68.63,-43.48 20.12,78.69 -62.52,51.86 81.09,5.15 z m 158.22,-2007.54 21.68,-54.37 58.33,-3.72 -45.03,-37.37 14.49,-56.65 -49.47,31.26 -49.34,-31.26 14.49,56.65 -45.04,37.37 58.33,3.72 z m 246.74,48.51 21.56,-54.26 58.33,-3.71 -45.04,-37.37 14.5,-56.65 -49.35,31.26 -49.47,-31.26 14.49,56.65 -45.03,37.37 58.45,3.71 z m 3.23,-423.52 21.56,-54.38 58.33,-3.71 -44.91,-37.37 14.49,-56.65 -49.47,31.26 -49.34,-31.26 14.49,56.65 -45.04,37.37 58.33,3.71 z m 2.4,234.28 25.39,-63.72 68.39,-4.43 -52.82,-43.72 17.01,-66.48 -57.97,36.78 -57.85,-36.78 16.89,66.48 -52.7,43.72 68.39,4.43 z m 201.34,187.21 21.56,-54.26 58.33,-3.83 -44.92,-37.25 14.5,-56.66 -49.47,31.26 -49.35,-31.26 14.49,56.66 -45.03,37.25 58.33,3.83 z m 195.83,103 25.27,-63.72 68.51,-4.31 -52.82,-43.84 17.01,-66.47 -57.97,36.77 -57.97,-36.77 17.01,66.47 -52.82,43.84 68.39,4.31 z m 16.05,390.71 30.06,-75.58 81.09,-5.27 -62.52,-51.86 20.12,-78.7 -68.75,43.48 -68.63,-43.48 20.12,78.7 -62.52,51.86 81.09,5.27 z m 83,-224.34 25.4,-63.72 68.39,-4.43 -52.82,-43.72 17,-66.48 -57.97,36.66 -57.97,-36.66 17.01,66.48 -52.82,43.72 68.51,4.43 z m 223.86,173.31 21.56,-54.38 58.33,-3.71 -45.03,-37.37 14.49,-56.53 -49.35,31.26 -49.47,-31.26 14.5,56.53 -44.92,37.37 58.33,3.71 z m -1563.77,223.26 25.27,-63.84 68.39,-4.31 -52.7,-43.84 16.89,-66.47 -57.85,36.77 -57.97,-36.77 17.01,66.47 -52.82,43.84 68.39,4.31 25.39,63.84"
         style="fill:#ffffff;fill-opacity:1;fill-rule:evenodd;stroke:none"
         id="path20" />
      <path
         d="m 4746.8,4646.18 c 1244.22,0 2384.83,-457.66 3262.41,-1212.95 28.99,101.81 50.43,206.73 63.72,314.05 -909.92,738.05 -2067.9,1181.21 -3326.13,1181.21 -218.11,0 -433.22,-13.65 -644.62,-39.53 -45.16,-96.41 -83.25,-196.66 -113.55,-300.27 247.33,37.85 500.54,57.49 758.17,57.49"
         style="fill:#ffffff;fill-opacity:1;fill-rule:evenodd;stroke:none"
         id="path22" />
      <path
         d="m 7780.68,3777.46 c 18.21,23.95 39.17,38.09 62.89,42.4 23.83,4.19 46.83,-2.16 69.1,-18.92 22.28,-16.89 34.62,-37.25 37.13,-61.45 2.4,-24.07 -5.39,-48.15 -23.47,-72.1 -18.21,-24.08 -39.29,-38.21 -63.12,-42.28 -23.84,-4.2 -46.95,2.03 -69.11,18.8 -22.28,16.89 -34.62,37.37 -37.01,61.45 -2.4,23.95 5.39,48.03 23.59,72.1 z m 31.26,-23.6 c -12.45,-16.41 -18.44,-31.98 -17.96,-46.47 0.36,-14.61 7.19,-26.83 20.24,-36.77 13.18,-9.94 26.95,-13.17 41.2,-9.7 14.14,3.47 27.43,13.53 39.89,29.94 12.33,16.29 18.32,31.86 17.84,46.48 -0.6,14.61 -7.42,26.94 -20.6,36.89 -13.05,9.94 -26.71,13.05 -40.84,9.46 -14.13,-3.48 -27.43,-13.42 -39.77,-29.83 z m -237.27,125.89 31.38,-21.32 c -4.55,-9.23 -5.27,-17.85 -2.27,-25.87 2.87,-7.91 9.82,-15.58 20.72,-22.88 9.22,-6.23 17.25,-9.34 24.19,-9.22 6.95,0.12 12.58,3.35 16.89,9.82 6.35,9.46 -1.92,26.23 -24.67,50.66 -0.24,0.24 -0.6,0.6 -0.72,0.84 -0.72,0.6 -1.56,1.56 -2.76,2.99 -12.33,12.94 -20.24,23.36 -23.71,31.51 -3.12,7.06 -4.07,14.73 -3,22.51 1.2,7.91 4.44,15.81 9.95,23.84 10.18,15.09 23.11,23.11 38.68,24.19 15.69,1.08 33.18,-4.91 52.46,-17.96 18.09,-12.22 29.23,-25.99 33.66,-41.45 4.43,-15.45 1.68,-31.02 -8.26,-46.95 l -30.67,20.6 c 4.55,7.91 5.51,15.57 3,23 -2.52,7.43 -8.63,14.37 -18.09,20.84 -8.38,5.63 -15.93,8.39 -22.64,8.15 -6.7,-0.24 -12.09,-3.36 -16.17,-9.35 -5.5,-8.14 -0.83,-20.24 13.9,-36.17 4.07,-4.31 7.18,-7.78 9.34,-10.18 9.34,-10.42 15.81,-18.2 19.52,-22.88 3.6,-4.79 6.47,-9.46 8.63,-13.77 3.95,-7.78 5.51,-15.57 4.79,-23.48 -0.72,-7.9 -3.83,-15.93 -9.34,-23.95 -10.78,-16.05 -24.68,-24.91 -41.56,-26.35 -16.89,-1.56 -35.1,4.31 -54.86,17.73 -19.41,13.17 -31.62,28.02 -36.53,44.43 -5.03,16.53 -2.28,33.42 8.14,50.67 z m -196.67,123 32.46,-19.52 c -4.07,-9.46 -4.43,-18.2 -1.08,-25.99 3.36,-7.78 10.66,-15.09 21.92,-21.8 9.58,-5.87 17.73,-8.5 24.68,-7.9 6.94,0.36 12.33,3.95 16.4,10.66 5.75,9.7 -3.35,26.11 -27.3,49.22 -0.36,0.36 -0.6,0.6 -0.84,0.84 -0.6,0.6 -1.56,1.56 -2.88,2.76 -13.05,12.33 -21.44,22.39 -25.27,30.3 -3.59,6.95 -4.91,14.49 -4.19,22.4 0.72,7.9 3.59,15.93 8.62,24.31 9.34,15.57 21.8,24.2 37.37,26.23 15.57,1.8 33.42,-3.23 53.3,-15.21 18.69,-11.26 30.66,-24.55 35.81,-39.64 5.27,-15.22 3.24,-31.03 -5.75,-47.43 l -31.62,19.04 c 4.08,8.14 4.68,15.81 1.68,23 -2.87,7.3 -9.34,14.01 -19.16,19.88 -8.63,5.27 -16.29,7.54 -23,7.07 -6.71,-0.6 -11.86,-3.96 -15.69,-10.19 -5.15,-8.5 0.24,-20.24 15.81,-35.45 4.19,-4.07 7.55,-7.31 9.82,-9.58 9.94,-10.06 16.77,-17.37 20.72,-21.92 3.84,-4.67 6.95,-8.98 9.35,-13.29 4.31,-7.55 6.34,-15.22 5.98,-23.12 -0.36,-8.03 -2.99,-16.17 -8.02,-24.43 -10.06,-16.65 -23.36,-26.12 -40.13,-28.51 -16.76,-2.4 -35.33,2.51 -55.69,14.85 -20.12,12.1 -33.18,26.23 -38.93,42.52 -5.75,16.17 -3.95,33.18 5.63,50.9 z m -210.68,57.86 90.79,163.13 118.46,-65.88 -15.81,-28.38 -85.4,47.55 -19.29,-34.86 78.1,-43.36 -15.58,-27.9 -78.09,43.35 -23.35,-41.92 89.47,-49.7 -16.77,-30.19 z m -208.65,107.19 82.05,167.57 81.33,-39.77 c 18.32,-8.98 29.94,-19.52 34.85,-31.62 5.03,-12.09 3.59,-26.23 -4.31,-42.28 -5.03,-10.3 -11.38,-17.72 -18.93,-22.52 -7.66,-4.67 -16.17,-6.34 -25.39,-4.91 5.99,-6.22 9.22,-12.57 9.82,-19.52 0.36,-6.83 -1.91,-15.93 -6.94,-27.31 l -8.99,-20.24 c 0,-0.12 -0.12,-0.36 -0.36,-0.6 -4.67,-10.06 -5.51,-17.25 -2.39,-21.44 l -2.52,-5.03 -37.85,18.45 c 0,2.99 0.48,6.34 1.56,10.06 1.08,3.83 2.64,8.14 4.91,12.93 l 8.15,17.85 c 4.67,10.54 6.1,18.56 4.43,23.95 -1.8,5.39 -7.31,10.3 -16.41,14.74 l -36.53,17.96 -31.98,-65.15 z m 80.73,77.38 40.48,-19.88 c 8.87,-4.32 16.17,-5.63 22.04,-4.08 5.87,1.56 10.66,6.11 14.5,13.9 3.47,7.18 4.19,13.65 2.03,19.4 -2.15,5.75 -7.3,10.54 -15.21,14.49 l -42.16,20.6 z m -177.5,-4.91 c -10.07,-5.87 -20.01,-9.11 -29.95,-9.7 -9.82,-0.6 -20.24,1.43 -31.14,6.1 -23.95,10.3 -39.88,26.83 -47.67,49.83 -7.78,23.12 -5.87,48.15 5.63,75.22 11.74,27.43 28.51,46.11 50.3,56.17 21.8,10.18 45.16,9.94 69.83,-0.6 21.56,-9.22 36.89,-21.8 46.12,-37.97 9.22,-16.04 11.26,-33.65 6.1,-52.82 l -36.05,15.34 c 1.68,9.82 0.12,18.56 -4.67,26.11 -4.67,7.54 -12.46,13.53 -23.23,18.2 -14.38,6.11 -27.91,5.63 -40.61,-1.44 -12.69,-6.94 -22.99,-19.76 -30.9,-38.32 -8.02,-18.69 -9.94,-35.1 -5.87,-49.35 4.07,-14.25 13.54,-24.55 28.39,-30.9 11.26,-4.67 22.04,-5.39 32.34,-2.04 10.42,3.48 18.92,10.54 25.63,21.2 l -38.93,16.65 12.46,29.35 71.14,-30.31 -39.64,-92.94 -23.6,10.06 z m -345.43,219.3 c 10.42,28.27 26.35,47.91 47.79,58.93 21.56,10.9 45.39,11.62 71.62,2.04 26.11,-9.58 43.96,-25.51 53.42,-47.79 9.46,-22.4 8.98,-47.67 -1.44,-75.94 -10.3,-28.26 -26.23,-47.91 -47.91,-58.81 -21.56,-11.02 -45.51,-11.74 -71.62,-2.15 -26.23,9.58 -43.96,25.51 -53.3,47.79 -9.34,22.27 -8.86,47.67 1.44,75.93 z m 36.77,-13.53 c -7.07,-19.28 -8.15,-35.81 -3.48,-49.71 4.56,-13.77 14.62,-23.47 30.07,-29.1 15.57,-5.63 29.58,-4.79 42.16,2.75 12.57,7.55 22.4,20.96 29.46,40.25 6.95,19.28 8.15,35.81 3.48,49.58 -4.8,13.9 -14.98,23.72 -30.55,29.35 -15.33,5.63 -29.34,4.67 -41.8,-2.76 -12.45,-7.54 -22.28,-20.96 -29.34,-40.36 z m -284.23,-0.6 54.74,178.46 86.6,-26.59 c 19.4,-5.98 32.57,-14.61 39.4,-25.75 6.83,-11.26 7.55,-25.39 2.28,-42.52 -3.36,-10.9 -8.39,-19.28 -15.21,-25.15 -6.83,-5.87 -14.86,-8.86 -24.2,-8.86 6.83,-5.15 11.14,-11.02 12.7,-17.73 1.44,-6.71 0.6,-16.05 -2.52,-28.15 l -5.75,-21.32 c 0,-0.12 -0.12,-0.36 -0.24,-0.72 -2.99,-10.65 -2.75,-17.84 0.96,-21.43 l -1.67,-5.51 -40.25,12.45 c -0.48,2.88 -0.6,6.23 -0.12,10.18 0.48,3.84 1.32,8.39 2.76,13.54 l 5.27,18.92 c 2.99,11.14 3.23,19.29 0.72,24.2 -2.64,5.03 -8.75,9.1 -18.57,12.09 l -38.93,11.98 -21.32,-69.35 z m 67.56,89.11 43.11,-13.29 c 9.35,-2.88 16.89,-3.12 22.4,-0.6 5.63,2.39 9.58,7.78 12.1,15.93 2.39,7.66 2.04,14.25 -0.96,19.52 -2.99,5.39 -8.86,9.34 -17.25,11.98 l -44.91,13.77 z m -224.46,29.35 -17.25,-64.08 -37.13,9.94 48.51,180.26 80.25,-21.56 c 18.92,-5.15 31.86,-14.01 39.04,-26.35 7.07,-12.46 8.03,-28.27 2.88,-47.31 -4.91,-18.57 -13.54,-31.62 -25.87,-39.05 -12.22,-7.54 -27.31,-8.86 -44.92,-4.19 z m 8.98,32.58 35.93,-9.71 c 9.71,-2.51 17.25,-2.39 22.76,0.48 5.51,3 9.58,8.99 11.98,18.21 2.39,8.5 1.91,15.57 -1.2,21.2 -3.11,5.51 -8.98,9.46 -17.61,11.74 l -37.72,10.18 z m -494.07,11.49 39.05,182.54 132.59,-28.39 -6.83,-31.74 -95.46,20.48 -8.38,-38.92 87.43,-18.69 -6.7,-31.26 -87.44,18.81 -10.06,-46.95 100.01,-21.44 -7.19,-33.78 z m -494.66,63.72 19.76,185.65 56.53,-5.98 21.8,-145.29 51.5,137.38 56.66,-5.99 -19.77,-185.65 -35.81,3.83 15.93,149.72 -53.66,-145.76 -39.04,4.19 -22.16,153.79 -16.05,-149.72 z m -219.79,13.06 10.06,186.37 135.47,-7.31 -1.8,-32.34 -97.62,5.27 -2.03,-39.76 89.11,-4.79 -1.68,-31.86 -89.23,4.79 -2.52,-47.91 102.05,-5.51 -1.79,-34.5 z m -236.91,4.19 3.59,186.61 73.06,-1.32 c 28.75,-0.6 49.95,-8.74 63.72,-24.43 13.78,-15.69 20.36,-39.29 19.76,-70.79 -0.35,-17.01 -3.23,-31.98 -8.62,-44.91 -5.51,-12.94 -13.29,-23.24 -23.24,-31.03 -7.54,-5.74 -16.05,-9.82 -25.63,-12.21 -9.46,-2.4 -22.75,-3.48 -39.88,-3.12 z m 38.32,32.94 30.79,-0.6 c 17.84,-0.36 30.9,4.07 39.04,13.3 8.15,9.1 12.46,24.31 12.82,45.15 0.36,20.96 -3,36.29 -10.3,46.23 -7.31,9.94 -18.81,15.09 -34.62,15.33 l -35.45,0.72 z m -275.48,-41.92 -6.22,186.61 90.54,2.99 c 20.25,0.72 35.46,-3.11 45.52,-11.5 10.18,-8.38 15.45,-21.56 16.05,-39.4 0.36,-11.38 -1.68,-20.96 -6.23,-28.75 -4.43,-7.78 -11.14,-13.17 -20,-16.29 8.14,-2.63 14.13,-6.83 17.72,-12.57 3.6,-5.87 5.87,-14.98 6.83,-27.43 l 1.56,-22.04 c 0,-0.12 0,-0.36 0,-0.72 0.6,-11.14 3.23,-17.85 7.9,-20 l 0.12,-5.75 -42.04,-1.44 c -1.43,2.64 -2.51,5.75 -3.35,9.58 -0.84,3.84 -1.56,8.39 -1.8,13.78 l -1.2,19.64 c -0.83,11.5 -3.23,19.28 -7.3,23.12 -4.07,3.95 -11.26,5.75 -21.44,5.39 l -40.72,-1.32 2.51,-72.58 z m 34.86,106.24 45.15,1.56 c 9.82,0.35 16.89,2.51 21.44,6.7 4.43,4.07 6.47,10.42 6.23,18.93 -0.24,8.14 -2.75,14.25 -7.31,18.2 -4.67,4.07 -11.37,5.99 -20.24,5.63 l -46.95,-1.56 z m -303.75,-34.74 c -2.63,30.07 3.59,54.62 18.45,73.66 14.85,19.05 36.17,29.71 63.95,32.1 27.79,2.4 50.67,-4.55 68.64,-20.72 17.96,-16.29 28.26,-39.4 30.78,-69.35 2.63,-30.06 -3.6,-54.61 -18.57,-73.66 -14.85,-19.04 -36.29,-29.82 -63.96,-32.22 -27.9,-2.39 -50.66,4.55 -68.63,20.84 -17.84,16.29 -28.14,39.41 -30.66,69.35 z m 39.05,3.36 c 1.67,-20.48 7.66,-35.94 17.72,-46.47 10.06,-10.55 23.24,-15.1 39.65,-13.78 16.41,1.44 28.86,8.15 37.01,20.36 8.26,12.1 11.38,28.39 9.7,48.87 -1.8,20.48 -7.79,35.93 -17.85,46.47 -10.18,10.54 -23.47,15.09 -40,13.66 -16.41,-1.32 -28.63,-8.15 -36.77,-20.24 -8.03,-11.98 -11.26,-28.27 -9.46,-48.87"
         style="fill:#299540;fill-opacity:1;fill-rule:evenodd;stroke:none"
         id="path24" />
    </g>
  </g>
</svg>
