<?xml version="1.0" encoding="UTF-8" standalone="no"?>
<!-- Created with Inkscape (http://www.inkscape.org/) -->

<svg
   version="1.1"
   id="svg2"
   width="1600"
   height="1066.6667"
   viewBox="0 0 1600 1066.6667"
   sodipodi:docname="portugal_flag.eps"
   xmlns:inkscape="http://www.inkscape.org/namespaces/inkscape"
   xmlns:sodipodi="http://sodipodi.sourceforge.net/DTD/sodipodi-0.dtd"
   xmlns="http://www.w3.org/2000/svg"
   xmlns:svg="http://www.w3.org/2000/svg">
  <defs
     id="defs6" />
  <sodipodi:namedview
     id="namedview4"
     pagecolor="#ffffff"
     bordercolor="#000000"
     borderopacity="0.25"
     inkscape:showpageshadow="2"
     inkscape:pageopacity="0.0"
     inkscape:pagecheckerboard="0"
     inkscape:deskcolor="#d1d1d1" />
  <g
     id="g8"
     inkscape:groupmode="layer"
     inkscape:label="ink_ext_XXXXXX"
     transform="matrix(1.3333333,0,0,-1.3333333,0,1066.6667)">
    <g
       id="g10"
       transform="scale(0.1)">
      <path
         d="M 0,8000 H 12000 V 0 H 0 v 8000"
         style="fill:#ed5565;fill-opacity:1;fill-rule:nonzero;stroke:none"
         id="path12" />
      <path
         d="M 0,8000 H 4834.29 V 0 H 0 v 8000"
         style="fill:#57a863;fill-opacity:1;fill-rule:nonzero;stroke:none"
         id="path14" />
      <path
         d="m 6410.26,2759.2 c -608.51,18.2 -3398.9,1747.6 -3418.04,2023 l 154.08,255.14 c 276.79,-399.32 3129.4,-2081.2 3409.59,-2021.6 l -145.63,-256.46"
         style="fill:#f6d660;fill-opacity:1;fill-rule:evenodd;stroke:none"
         id="path16" />
      <path
         d="m 6410.26,2759.2 c -608.51,18.2 -3398.9,1747.6 -3418.04,2023 l 154.08,255.14 c 276.79,-399.32 3129.4,-2081.2 3409.59,-2021.6 l -145.63,-256.46"
         style="fill:none;stroke:#434a54;stroke-width:11.5009;stroke-linecap:round;stroke-linejoin:round;stroke-miterlimit:10;stroke-dasharray:none;stroke-opacity:1"
         id="path18" />
      <path
         d="m 6424.57,2751.2 c -10.33,-18.59 -29.57,-19.21 -66.11,-15.22 -227.61,25.01 -918.29,358.5 -1735.54,844.26 -950.95,565.2 -1736.32,1080.2 -1651.11,1214.8 l 23.18,40.69 4.56,-1.41 c -76.62,-228.1 1549.96,-1151.56 1645.71,-1210.44 941.16,-578.94 1734.61,-917.02 1804.82,-829.16 l -25.54,-43.62 v 0.04 z M 3113.88,5072 c -54.58,-145.87 728.15,-626.36 1669.91,-1195.08 941.72,-568.68 1753.73,-920.12 1813.92,-869.72 3.68,6.51 29.61,50.82 27.24,50.46 -11.28,-16.88 -38.75,-22.2 -81.6,-9.94 -254.42,72.86 -918.01,375.3 -1739.81,870.12 -821.79,494.86 -1536.78,950.88 -1647.91,1144.64 -7.73,13.42 -13.24,37.92 -12.12,56.97 l -2.69,0.04 -23.67,-41.06 -3.25,-6.44 h -0.02 v 0.01"
         style="fill:#f6d660;fill-opacity:1;fill-rule:evenodd;stroke:none"
         id="path20" />
      <path
         d="m 6424.57,2751.2 c -10.33,-18.59 -29.57,-19.21 -66.11,-15.22 -227.61,25.01 -918.29,358.5 -1735.54,844.26 -950.95,565.2 -1736.32,1080.2 -1651.11,1214.8 l 23.18,40.69 4.56,-1.41 c -76.62,-228.1 1549.96,-1151.56 1645.71,-1210.44 941.16,-578.94 1734.61,-917.02 1804.82,-829.16 l -25.54,-43.62 v 0.04 z M 3113.88,5072 c -54.58,-145.87 728.15,-626.36 1669.91,-1195.08 941.72,-568.68 1753.73,-920.12 1813.92,-869.72 3.68,6.51 29.61,50.82 27.24,50.46 -11.28,-16.88 -38.75,-22.2 -81.6,-9.94 -254.42,72.86 -918.01,375.3 -1739.81,870.12 -821.79,494.86 -1536.78,950.88 -1647.91,1144.64 -7.73,13.42 -13.24,37.92 -12.12,56.97 l -2.69,0.04 -23.67,-41.06 -3.25,-6.44 h -0.02 z"
         style="fill:none;stroke:#434a54;stroke-width:11.5009;stroke-linecap:round;stroke-linejoin:round;stroke-miterlimit:10;stroke-dasharray:none;stroke-opacity:1"
         id="path22" />
      <path
         d="m 4837.71,4615.4 c 609.06,4.78 1360.65,82.64 1793.18,253.8 l -93.19,150.34 c -255.65,-140.5 -1011.38,-232.88 -1705.14,-246.7 -820.53,7.49 -1399.72,83.36 -1689.92,276.7 l -87.97,-160.09 c 533.46,-224.14 1080.12,-271.74 1783.04,-274.06"
         style="fill:#f6d660;fill-opacity:1;fill-rule:evenodd;stroke:none"
         id="path24" />
      <path
         d="m 4837.71,4615.4 c 609.06,4.78 1360.65,82.64 1793.18,253.8 l -93.19,150.34 c -255.65,-140.5 -1011.38,-232.88 -1705.14,-246.7 -820.53,7.49 -1399.72,83.36 -1689.92,276.7 l -87.97,-160.09 c 533.46,-224.14 1080.12,-271.74 1783.04,-274.06"
         style="fill:none;stroke:#434a54;stroke-width:11.5009;stroke-linecap:round;stroke-linejoin:round;stroke-miterlimit:10;stroke-dasharray:none;stroke-opacity:1"
         id="path26" />
      <path
         d="m 6574.22,5018.25 c -46.19,-36.83 -276.32,-117.86 -681.21,-182.07 -270.22,-38.45 -613.8,-72.86 -1052.77,-73.29 -417.04,-0.4 -757.75,27.5 -1016.91,64.99 -411.2,53.32 -630.05,149.5 -708.95,177.55 7.85,13.47 15.84,26.84 24.05,40.27 61.4,-30.69 272.6,-115.82 689.41,-174.45 256.22,-36.07 597.46,-62.95 1012.42,-62.53 436.9,0.44 776.57,35.52 1045.08,73.77 406.98,55.59 625.98,158.94 659.23,184.82 l 29.67,-49.02 v -0.04 z m 81.79,-152.45 c -14.89,-23.64 -296.97,-120.23 -712.52,-191.51 -281.76,-42.65 -649.28,-79.11 -1107.93,-79.55 -435.76,-0.4 -791.72,30.39 -1061.21,66.66 -436.22,67.91 -661.35,162.4 -744.58,195.79 7.95,15.72 13.07,26.74 20.75,41.42 239.6,-94.72 465.78,-151.84 730.76,-192.32 267.72,-36 619.39,-67.24 1052.99,-66.83 456.52,0.46 819.99,39.69 1100.12,81.07 426.12,68.24 658.9,156.06 691.59,196.85 l 30.09,-51.58 h -0.04 -0.02"
         style="fill:#f6d660;fill-opacity:1;fill-rule:evenodd;stroke:none"
         id="path28" />
      <path
         d="m 6574.22,5018.25 c -46.19,-36.83 -276.32,-117.86 -681.21,-182.07 -270.22,-38.45 -613.8,-72.86 -1052.77,-73.29 -417.04,-0.4 -757.75,27.5 -1016.91,64.99 -411.2,53.32 -630.05,149.5 -708.95,177.55 7.85,13.47 15.84,26.84 24.05,40.27 61.4,-30.69 272.6,-115.82 689.41,-174.45 256.22,-36.07 597.46,-62.95 1012.42,-62.53 436.9,0.44 776.57,35.52 1045.08,73.77 406.98,55.59 625.98,158.94 659.23,184.82 l 29.67,-49.02 v -0.04 z m 81.79,-152.45 c -14.89,-23.64 -296.97,-120.23 -712.52,-191.51 -281.76,-42.65 -649.28,-79.11 -1107.93,-79.55 -435.76,-0.4 -791.72,30.39 -1061.21,66.66 -436.22,67.91 -661.35,162.4 -744.58,195.79 7.95,15.72 13.07,26.74 20.75,41.42 239.6,-94.72 465.78,-151.84 730.76,-192.32 267.72,-36 619.39,-67.24 1052.99,-66.83 456.52,0.46 819.99,39.69 1100.12,81.07 426.12,68.24 658.9,156.06 691.59,196.85 l 30.09,-51.58 h -0.04 z"
         style="fill:none;stroke:#434a54;stroke-width:11.5009;stroke-linecap:round;stroke-linejoin:round;stroke-miterlimit:10;stroke-dasharray:none;stroke-opacity:1"
         id="path30" />
      <path
         d="m 2837.72,3886.8 c 374.62,-200.06 1206.66,-300.88 1994.03,-307.82 716.9,-1.13 1650.87,110.03 2000.13,293.8 l -9.62,200.24 C 6713,3903.47 5712.13,3740.84 4823.97,3747.5 c -888.16,6.65 -1712.91,142.86 -1987.84,319.18 l 1.6,-179.83"
         style="fill:#f6d660;fill-opacity:1;fill-rule:evenodd;stroke:none"
         id="path32" />
      <path
         d="m 2837.72,3886.8 c 374.62,-200.06 1206.66,-300.88 1994.03,-307.82 716.9,-1.13 1650.87,110.03 2000.13,293.8 l -9.62,200.24 C 6713,3903.47 5712.13,3740.84 4823.97,3747.5 c -888.16,6.65 -1712.91,142.86 -1987.84,319.18 l 1.6,-179.83"
         style="fill:none;stroke:#434a54;stroke-width:11.5009;stroke-linecap:round;stroke-linejoin:round;stroke-miterlimit:10;stroke-dasharray:none;stroke-opacity:1"
         id="path34" />
      <path
         d="m 6851.19,4085.44 0.02,-47.74 c -52.49,-62.29 -381.63,-156.48 -794.37,-222.8 -314.13,-47.82 -723.68,-83.89 -1234,-83.89 -484.82,0 -871.44,34.29 -1171.26,80.02 -473.95,68.5 -777.1,188.49 -837.95,224.32 l 0.27,55.71 c 182.79,-120.65 678.03,-208.94 844.33,-235.92 297.87,-45.44 682.19,-79.52 1164.6,-79.52 507.92,0 915.17,35.84 1227.32,83.38 296.12,42.48 717.98,152.93 801.02,226.48 z m -0.2,-169.84 0.02,-47.75 c -52.49,-62.32 -381.63,-156.51 -794.38,-222.84 -314.13,-47.82 -723.67,-83.89 -1233.99,-83.89 -484.82,0 -871.44,34.33 -1171.27,80.03 -473.94,68.53 -777.09,188.52 -837.94,224.34 l 0.27,55.7 c 182.79,-120.66 678.02,-208.94 844.33,-235.96 297.87,-45.4 682.19,-79.46 1164.6,-79.46 507.92,0 915.17,35.82 1227.32,83.33 296.12,42.47 717.97,152.93 801.02,226.48 h 0.02 v 0.02"
         style="fill:#f6d660;fill-opacity:1;fill-rule:evenodd;stroke:none"
         id="path36" />
      <path
         d="m 6851.19,4085.44 0.02,-47.74 c -52.49,-62.29 -381.63,-156.48 -794.37,-222.8 -314.13,-47.82 -723.68,-83.89 -1234,-83.89 -484.82,0 -871.44,34.29 -1171.26,80.02 -473.95,68.5 -777.1,188.49 -837.95,224.32 l 0.27,55.71 c 182.79,-120.65 678.03,-208.94 844.33,-235.92 297.87,-45.44 682.19,-79.52 1164.6,-79.52 507.92,0 915.17,35.84 1227.32,83.38 296.12,42.48 717.98,152.93 801.02,226.48 z m -0.2,-169.84 0.02,-47.75 c -52.49,-62.32 -381.63,-156.51 -794.38,-222.84 -314.13,-47.82 -723.67,-83.89 -1233.99,-83.89 -484.82,0 -871.44,34.33 -1171.27,80.03 -473.94,68.53 -777.09,188.52 -837.94,224.34 l 0.27,55.7 c 182.79,-120.66 678.02,-208.94 844.33,-235.96 297.87,-45.4 682.19,-79.46 1164.6,-79.46 507.92,0 915.17,35.82 1227.32,83.33 296.12,42.47 717.97,152.93 801.02,226.48 h 0.02 z"
         style="fill:none;stroke:#434a54;stroke-width:11.5009;stroke-linecap:round;stroke-linejoin:round;stroke-miterlimit:10;stroke-dasharray:none;stroke-opacity:1"
         id="path38" />
      <path
         d="m 4830.05,2793.6 c -861.54,5.1 -1599.76,233.18 -1755.65,270.88 l 113.68,-176.69 c 275.35,-115 995.54,-286.4 1650.24,-267.42 654.72,18.96 1226.9,69.32 1630.12,264.22 l 116.55,183.11 C 6310.21,2939.2 5375.05,2794.92 4830.04,2793.6"
         style="fill:#f6d660;fill-opacity:1;fill-rule:evenodd;stroke:none"
         id="path40" />
      <path
         d="m 4830.05,2793.6 c -861.54,5.1 -1599.76,233.18 -1755.65,270.88 l 113.68,-176.69 c 275.35,-115 995.54,-286.4 1650.24,-267.42 654.72,18.96 1226.9,69.32 1630.12,264.22 l 116.55,183.11 C 6310.21,2939.2 5375.05,2794.92 4830.04,2793.6"
         style="fill:none;stroke:#434a54;stroke-width:11.5009;stroke-linecap:round;stroke-linejoin:round;stroke-miterlimit:10;stroke-dasharray:none;stroke-opacity:1"
         id="path42" />
      <path
         d="m 6613.25,3091.11 c 0.44,-0.52 0.89,-1.01 1.31,-1.56 -12.81,-21.46 -26.01,-43.3 -39.52,-65.24 -101.44,-36 -376.71,-115.98 -778.71,-171.79 -264.86,-35.82 -429.48,-70.52 -956.36,-80.68 -987.3,24.94 -1626.53,216.62 -1778.39,263.9 l -22.51,42.86 c 572.18,-148.3 1156.64,-251.84 1800.93,-262.42 482.04,10.2 687.12,45.44 949.78,81 468.75,72.37 704.92,149 775.8,171.12 -0.88,1.27 -1.93,2.61 -3.1,3.98 l 50.82,18.86 -0.04,-0.04 z M 6512.18,2925.6 c -17.12,-25.98 -34.58,-51.65 -52.29,-76.59 -190.18,-66.58 -489.86,-136.49 -616.31,-156.88 -258.32,-52.84 -657.97,-91.88 -1012.67,-92.06 -763.2,11.1 -1387.94,159.44 -1681.84,285.98 l -23.72,40.49 3.87,6.08 40.22,-15.49 c 522.67,-185.66 1109.69,-259.74 1665.77,-273.04 353.27,-1.23 706.92,40.2 992.89,90.99 438.53,87.24 615.85,153 670.25,182.81 l 13.84,7.7 h -0.02 l 0.01,0.01"
         style="fill:#f6d660;fill-opacity:1;fill-rule:evenodd;stroke:none"
         id="path44" />
      <path
         d="m 6613.25,3091.11 c 0.44,-0.52 0.89,-1.01 1.31,-1.56 -12.81,-21.46 -26.01,-43.3 -39.52,-65.24 -101.44,-36 -376.71,-115.98 -778.71,-171.79 -264.86,-35.82 -429.48,-70.52 -956.36,-80.68 -987.3,24.94 -1626.53,216.62 -1778.39,263.9 l -22.51,42.86 c 572.18,-148.3 1156.64,-251.84 1800.93,-262.42 482.04,10.2 687.12,45.44 949.78,81 468.75,72.37 704.92,149 775.8,171.12 -0.88,1.27 -1.93,2.61 -3.1,3.98 l 50.82,18.86 -0.04,-0.04 z M 6512.18,2925.6 c -17.12,-25.98 -34.58,-51.65 -52.29,-76.59 -190.18,-66.58 -489.86,-136.49 -616.31,-156.88 -258.32,-52.84 -657.97,-91.88 -1012.67,-92.06 -763.2,11.1 -1387.94,159.44 -1681.84,285.98 l -23.72,40.49 3.87,6.08 40.22,-15.49 c 522.67,-185.66 1109.69,-259.74 1665.77,-273.04 353.27,-1.23 706.92,40.2 992.89,90.99 438.53,87.24 615.85,153 670.25,182.81 l 13.84,7.7 h -0.02 z"
         style="fill:none;stroke:#434a54;stroke-width:11.0392;stroke-linecap:round;stroke-linejoin:round;stroke-miterlimit:10;stroke-dasharray:none;stroke-opacity:1"
         id="path46" />
      <path
         d="m 4827.11,5971.64 c 1097.49,0 2000.11,-886.76 2000.11,-1974.06 0,-1087.28 -902.62,-1974.08 -2000.11,-1974.08 -1097.48,0 -1992.61,886.78 -1992.61,1974.08 0,1087.3 895.13,1974.06 1992.61,1974.06 M 6623.57,4044.8 c 2.8,-562.74 -287.23,-1067.72 -520.85,-1290.5 -330.5,-315.18 -768.71,-517.92 -1280.46,-527.26 -571.45,-10.42 -1110.27,359.48 -1254.8,521.98 -282.56,317.7 -512.62,721.14 -519.99,1264.86 35,614.18 277.83,1042 629.83,1335.38 352,293.38 820.68,436.26 1211.01,426.04 450.35,-11.8 976.42,-231.16 1339.92,-666.64 238.15,-285.32 341.28,-594.96 395.34,-1063.86"
         style="fill:#f6d660;fill-opacity:1;fill-rule:evenodd;stroke:none"
         id="path48" />
      <path
         d="m 4827.11,5971.64 c 1097.49,0 2000.11,-886.76 2000.11,-1974.06 0,-1087.28 -902.62,-1974.08 -2000.11,-1974.08 -1097.48,0 -1992.61,886.78 -1992.61,1974.08 0,1087.3 895.13,1974.06 1992.61,1974.06 M 6623.57,4044.8 c 2.8,-562.74 -287.23,-1067.72 -520.85,-1290.5 -330.5,-315.18 -768.71,-517.92 -1280.46,-527.26 -571.45,-10.42 -1110.27,359.48 -1254.8,521.98 -282.56,317.7 -512.62,721.14 -519.99,1264.86 35,614.18 277.83,1042 629.83,1335.38 352,293.38 820.68,436.26 1211.01,426.04 450.35,-11.8 976.42,-231.16 1339.92,-666.64 238.15,-285.32 341.28,-594.96 395.34,-1063.86 z"
         style="fill:none;stroke:#434a54;stroke-width:11.5009;stroke-linecap:round;stroke-linejoin:round;stroke-miterlimit:10;stroke-dasharray:none;stroke-opacity:1"
         id="path50" />
      <path
         d="m 2882,3997.95 c 0,-1065.2 880.97,-1936.84 1950.47,-1936.84 1069.53,0 1950.49,871.64 1950.49,1936.84 0,1065.24 -880.98,1936.88 -1950.49,1936.88 C 3762.97,5934.83 2882,5063.15 2882,3997.95 Z M 4832.47,5978.4 c 1098.47,0 1994.37,-889.66 1994.37,-1980.44 0,-1090.76 -895.92,-1980.4 -1994.37,-1980.4 -1098.47,0 -1994.36,889.62 -1994.36,1980.4 0,1090.78 895.91,1980.44 1994.36,1980.44"
         style="fill:#f6d660;fill-opacity:1;fill-rule:evenodd;stroke:none"
         id="path52" />
      <path
         d="m 2882,3997.95 c 0,-1065.2 880.97,-1936.84 1950.47,-1936.84 1069.53,0 1950.49,871.64 1950.49,1936.84 0,1065.24 -880.98,1936.88 -1950.49,1936.88 C 3762.97,5934.83 2882,5063.15 2882,3997.95 Z M 4832.47,5978.4 c 1098.47,0 1994.37,-889.66 1994.37,-1980.44 0,-1090.76 -895.92,-1980.4 -1994.37,-1980.4 -1098.47,0 -1994.36,889.62 -1994.36,1980.4 0,1090.78 895.91,1980.44 1994.36,1980.44 z"
         style="fill:none;stroke:#434a54;stroke-width:11.5009;stroke-linecap:round;stroke-linejoin:round;stroke-miterlimit:10;stroke-dasharray:none;stroke-opacity:1"
         id="path54" />
      <path
         d="m 3051.14,3999.73 c 0,-973.7 805.29,-1770.48 1782.94,-1770.48 977.66,0 1782.95,796.78 1782.95,1770.48 0,973.72 -805.27,1770.5 -1782.95,1770.5 -977.65,0 -1782.94,-796.78 -1782.94,-1770.5 z M 4834.08,5813.8 c 1001.73,0 1826.82,-816.42 1826.82,-1814.08 0,-997.68 -825.11,-1814.06 -1826.81,-1814.06 -1001.71,0 -1826.82,816.38 -1826.82,1814.06 0,997.66 825.13,1814.08 1826.81,1814.08"
         style="fill:#f6d660;fill-opacity:1;fill-rule:evenodd;stroke:none"
         id="path56" />
      <path
         d="m 3051.14,3999.73 c 0,-973.7 805.29,-1770.48 1782.94,-1770.48 977.66,0 1782.95,796.78 1782.95,1770.48 0,973.72 -805.27,1770.5 -1782.95,1770.5 -977.65,0 -1782.94,-796.78 -1782.94,-1770.5 z M 4834.08,5813.8 c 1001.73,0 1826.82,-816.42 1826.82,-1814.08 0,-997.68 -825.11,-1814.06 -1826.81,-1814.06 -1001.71,0 -1826.82,816.38 -1826.82,1814.06 0,997.66 825.13,1814.08 1826.81,1814.08 z"
         style="fill:none;stroke:#434a54;stroke-width:11.5009;stroke-linecap:round;stroke-linejoin:round;stroke-miterlimit:10;stroke-dasharray:none;stroke-opacity:1"
         id="path58" />
      <path
         d="m 4914.45,5986.4 h -170.91 l 0.2,-3979.2 h 171.5 l -0.79,3979.2"
         style="fill:#f6d660;fill-opacity:1;fill-rule:evenodd;stroke:none"
         id="path60" />
      <path
         d="m 4914.45,5986.4 h -170.91 l 0.2,-3979.2 h 171.5 z"
         style="fill:none;stroke:#434a54;stroke-width:11.5009;stroke-linecap:round;stroke-linejoin:round;stroke-miterlimit:10;stroke-dasharray:none;stroke-opacity:1"
         id="path62" />
      <path
         d="m 4727.71,6009.04 h 43.84 l 0.06,-4025 h -43.88 v 4025 z m 169.62,0.04 h 43.51 l 0.37,-4025 h -43.54 l -0.32,4025 h -0.02"
         style="fill:#f6d660;fill-opacity:1;fill-rule:evenodd;stroke:none"
         id="path64" />
      <path
         d="m 4727.71,6009.04 h 43.84 l 0.06,-4025 h -43.88 v 4025 z m 169.62,0.04 h 43.51 l 0.37,-4025 h -43.54 l -0.32,4025 z"
         style="fill:none;stroke:#434a54;stroke-width:11.5009;stroke-linecap:round;stroke-linejoin:round;stroke-miterlimit:10;stroke-dasharray:none;stroke-opacity:1"
         id="path66" />
      <path
         d="m 6828.23,3921.3 v 147.11 l -120.66,111.6 -684.86,180 -987,100 -1188.42,-60 -846.01,-200 -170.81,-125.6 v -147.15 l 432.67,192.74 1027.29,160 h 987 l 725.14,-80 503.57,-120 322.09,-158.7"
         style="fill:#f6d660;fill-opacity:1;fill-rule:evenodd;stroke:none"
         id="path68" />
      <path
         d="m 6828.23,3921.3 v 147.11 l -120.66,111.6 -684.86,180 -987,100 -1188.42,-60 -846.01,-200 -170.81,-125.6 v -147.15 l 432.67,192.74 1027.29,160 h 987 l 725.14,-80 503.57,-120 z"
         style="fill:none;stroke:#434a54;stroke-width:11.5009;stroke-linecap:round;stroke-linejoin:round;stroke-miterlimit:10;stroke-dasharray:none;stroke-opacity:1"
         id="path70" />
      <path
         d="m 4833.48,4474.44 c 471,0.85 927.98,-44.34 1290.45,-114.38 374.03,-74.28 637.26,-167.12 727.26,-271.42 l -0.1,-51.65 c -108.54,129.77 -462.75,224.94 -735.58,279.32 -359.71,69.51 -813.63,114.37 -1282.03,113.47 -494.27,-0.88 -952.27,-47.39 -1306.77,-116.03 -274.46,-51.66 -669.26,-167.39 -713.3,-277.2 v 53.82 c 26.01,75.18 314.17,192.83 704.7,268.34 357.11,69.14 818.2,114.79 1315.37,115.73 z m -0.2,-169.84 c 471,0.86 927.98,-44.31 1290.45,-114.39 374.03,-74.24 637.26,-167.11 727.26,-271.42 l -0.1,-51.64 c -108.54,129.8 -462.75,224.96 -735.58,279.36 -359.71,69.48 -813.63,114.33 -1282.03,113.47 -494.27,-0.92 -954.51,-47.4 -1308.96,-116.07 -284.42,-56.03 -663.73,-167.36 -711.09,-277.16 v 53.78 c 26.01,76.01 308.45,189.59 704.68,268.34 357.11,69.15 818.2,114.83 1315.37,115.73"
         style="fill:#f6d660;fill-opacity:1;fill-rule:evenodd;stroke:none"
         id="path72" />
      <path
         d="m 4833.48,4474.44 c 471,0.85 927.98,-44.34 1290.45,-114.38 374.03,-74.28 637.26,-167.12 727.26,-271.42 l -0.1,-51.65 c -108.54,129.77 -462.75,224.94 -735.58,279.32 -359.71,69.51 -813.63,114.37 -1282.03,113.47 -494.27,-0.88 -952.27,-47.39 -1306.77,-116.03 -274.46,-51.66 -669.26,-167.39 -713.3,-277.2 v 53.82 c 26.01,75.18 314.17,192.83 704.7,268.34 357.11,69.14 818.2,114.79 1315.37,115.73 z m -0.2,-169.84 c 471,0.86 927.98,-44.31 1290.45,-114.39 374.03,-74.24 637.26,-167.11 727.26,-271.42 l -0.1,-51.64 c -108.54,129.8 -462.75,224.96 -735.58,279.36 -359.71,69.48 -813.63,114.33 -1282.03,113.47 -494.27,-0.92 -954.51,-47.4 -1308.96,-116.07 -284.42,-56.03 -663.73,-167.36 -711.09,-277.16 v 53.78 c 26.01,76.01 308.45,189.59 704.68,268.34 357.11,69.15 818.2,114.83 1315.37,115.73 z"
         style="fill:none;stroke:#434a54;stroke-width:11.5009;stroke-linecap:round;stroke-linejoin:round;stroke-miterlimit:10;stroke-dasharray:none;stroke-opacity:1"
         id="path74" />
      <path
         d="m 4823.81,5340.8 c 742.24,3.69 1389.66,-103.05 1685.86,-253.7 l 108.04,-185.58 c -257.45,137.76 -955.9,281 -1792.82,259.58 -681.91,-4.16 -1410.54,-74.54 -1776.11,-268.2 l 128.98,214.18 c 300.03,154.48 1007.59,232.86 1646.08,233.68"
         style="fill:#f6d660;fill-opacity:1;fill-rule:evenodd;stroke:none"
         id="path76" />
      <path
         d="m 4823.81,5340.8 c 742.24,3.69 1389.66,-103.05 1685.86,-253.7 l 108.04,-185.58 c -257.45,137.76 -955.9,281 -1792.82,259.58 -681.91,-4.16 -1410.54,-74.54 -1776.11,-268.2 l 128.98,214.18 c 300.03,154.48 1007.59,232.86 1646.08,233.68"
         style="fill:none;stroke:#434a54;stroke-width:11.5009;stroke-linecap:round;stroke-linejoin:round;stroke-miterlimit:10;stroke-dasharray:none;stroke-opacity:1"
         id="path78" />
      <path
         d="m 4833.5,5357.29 c 405.13,1.05 805.15,-21.36 1116.96,-77.02 245.93,-47.53 489.13,-121.74 578.18,-187.78 l 46.85,-73.91 c -79.64,87.9 -379.42,171.19 -644.05,217.84 -309.41,52.99 -692.82,73.96 -1097.95,77.31 -425.17,-1.18 -818.1,-27.04 -1123,-82.16 -290.89,-54.96 -478.6,-120.03 -558.02,-170.85 l 41.19,61.74 c 109.61,57.29 286.68,109.91 509.68,152.93 307.16,55.53 702.5,80.71 1130.18,81.9 z m 0.18,-169.69 c 423.35,1.11 832.4,-22.6 1157.73,-80.87 302.97,-55.99 591.9,-140.02 633.21,-185.21 l 32.03,-56.2 c -100.47,65.14 -350.5,137.67 -671.54,198.12 -322.4,60.17 -731.18,80.1 -1152.17,79 -477.83,1.63 -849.06,-23.42 -1167.66,-78.58 -336.95,-62.6 -570.73,-152.03 -628.4,-194.52 l 31.39,59.41 c 112.06,56.76 289.86,125.18 588.63,178.59 329.48,59.76 704.66,77.68 1176.81,80.26 h -0.02 -0.01"
         style="fill:#f6d660;fill-opacity:1;fill-rule:evenodd;stroke:none"
         id="path80" />
      <path
         d="m 4833.5,5357.29 c 405.13,1.05 805.15,-21.36 1116.96,-77.02 245.93,-47.53 489.13,-121.74 578.18,-187.78 l 46.85,-73.91 c -79.64,87.9 -379.42,171.19 -644.05,217.84 -309.41,52.99 -692.82,73.96 -1097.95,77.31 -425.17,-1.18 -818.1,-27.04 -1123,-82.16 -290.89,-54.96 -478.6,-120.03 -558.02,-170.85 l 41.19,61.74 c 109.61,57.29 286.68,109.91 509.68,152.93 307.16,55.53 702.5,80.71 1130.18,81.9 z m 0.18,-169.69 c 423.35,1.11 832.4,-22.6 1157.73,-80.87 302.97,-55.99 591.9,-140.02 633.21,-185.21 l 32.03,-56.2 c -100.47,65.14 -350.5,137.67 -671.54,198.12 -322.4,60.17 -731.18,80.1 -1152.17,79 -477.83,1.63 -849.06,-23.42 -1167.66,-78.58 -336.95,-62.6 -570.73,-152.03 -628.4,-194.52 l 31.39,59.41 c 112.06,56.76 289.86,125.18 588.63,178.59 329.48,59.76 704.66,77.68 1176.81,80.26 h -0.02 z"
         style="fill:none;stroke:#434a54;stroke-width:11.5009;stroke-linecap:round;stroke-linejoin:round;stroke-miterlimit:10;stroke-dasharray:none;stroke-opacity:1"
         id="path82" />
      <path
         d="m 5824.31,3174.8 c -366.97,68.02 -734.59,77.89 -991.38,74.89 -1236.9,-14.39 -1636.48,-252.18 -1685.24,-324.18 l -92.45,149.63 c 314.92,226.64 988.47,353.74 1784.39,340.74 413.29,-6.72 769.95,-33.97 1069.97,-91.67 l -85.32,-149.45"
         style="fill:#f6d660;fill-opacity:1;fill-rule:evenodd;stroke:none"
         id="path84" />
      <path
         d="m 5824.31,3174.8 c -366.97,68.02 -734.59,77.89 -991.38,74.89 -1236.9,-14.39 -1636.48,-252.18 -1685.24,-324.18 l -92.45,149.63 c 314.92,226.64 988.47,353.74 1784.39,340.74 413.29,-6.72 769.95,-33.97 1069.97,-91.67 l -85.32,-149.45"
         style="fill:none;stroke:#434a54;stroke-width:11.5009;stroke-linecap:round;stroke-linejoin:round;stroke-miterlimit:10;stroke-dasharray:none;stroke-opacity:1"
         id="path86" />
      <path
         d="m 4841.44,3442.73 c 356.49,-6.62 724.64,-22.99 1082.48,-93.37 l -24.59,-43.07 c -323.13,63.69 -631.86,84.93 -1055.79,91.4 -457.94,-0.82 -943.71,-33.25 -1385.38,-160.74 -142.59,-41.24 -388.7,-130.4 -396.9,-201 l -23.48,41.31 c 5.35,64.12 218.39,147.76 410.07,203.12 445.07,128.48 932.11,161.52 1393.6,162.35 z m -15.61,-171.93 c 344.08,-5.1 681.81,-19.21 1007.8,-79.57 l -23.61,-41.38 c -302.76,55.49 -625.53,76.73 -983.03,75 -456.49,3.55 -918.21,-38.79 -1320.18,-153.33 C 3379.98,3036.47 3170,2955.5 3148.59,2888.6 l -23.48,38.45 c 6.77,39.55 133.67,121.62 370.91,187.8 460.42,130.92 891.09,152.99 1329.81,155.98 v -0.04 0.01"
         style="fill:#f6d660;fill-opacity:1;fill-rule:evenodd;stroke:none"
         id="path88" />
      <path
         d="m 4841.44,3442.73 c 356.49,-6.62 724.64,-22.99 1082.48,-93.37 l -24.59,-43.07 c -323.13,63.69 -631.86,84.93 -1055.79,91.4 -457.94,-0.82 -943.71,-33.25 -1385.38,-160.74 -142.59,-41.24 -388.7,-130.4 -396.9,-201 l -23.48,41.31 c 5.35,64.12 218.39,147.76 410.07,203.12 445.07,128.48 932.11,161.52 1393.6,162.35 z m -15.61,-171.93 c 344.08,-5.1 681.81,-19.21 1007.8,-79.57 l -23.61,-41.38 c -302.76,55.49 -625.53,76.73 -983.03,75 -456.49,3.55 -918.21,-38.79 -1320.18,-153.33 C 3379.98,3036.47 3170,2955.5 3148.59,2888.6 l -23.48,38.45 c 6.77,39.55 133.67,121.62 370.91,187.8 460.42,130.92 891.09,152.99 1329.81,155.98 v -0.04 z"
         style="fill:none;stroke:#434a54;stroke-width:11.0392;stroke-linecap:round;stroke-linejoin:round;stroke-miterlimit:10;stroke-dasharray:none;stroke-opacity:1"
         id="path90" />
      <path
         d="M 6598.4,3052.4 6449.76,2823.42 6022.71,3200 4914.86,3940 3666,4620 l -648.4,220.2 138.18,254.4 46.93,25.4 402.86,-100 1329.43,-680 765.43,-480 644.57,-460 261.86,-300 -8.46,-47.6"
         style="fill:#f6d660;fill-opacity:1;fill-rule:evenodd;stroke:none"
         id="path92" />
      <path
         d="M 6598.4,3052.4 6449.76,2823.42 6022.71,3200 4914.86,3940 3666,4620 l -648.4,220.2 138.18,254.4 46.93,25.4 402.86,-100 L 4935,4340 5700.43,3860 6345,3400 6606.86,3100 Z"
         style="fill:none;stroke:#434a54;stroke-width:11.5009;stroke-linecap:round;stroke-linejoin:round;stroke-miterlimit:10;stroke-dasharray:none;stroke-opacity:1"
         id="path94" />
      <path
         d="M 6628.81,3055.66 C 6700.72,3196.7 5925.5,3776.54 4964.37,4341.1 3981.13,4894.42 3272.49,5220.12 3143.05,5123 l -28.76,-51.98 c -0.25,-2.86 1.05,3.54 7.13,8.2 23.53,20.39 62.54,19.01 80.15,19.33 222.88,-3.31 859.43,-294.18 1752.55,-802.56 391.33,-226.3 1653.14,-1029.82 1648.33,-1255.78 0.33,-19.42 1.61,-23.42 -5.74,-33.04 l 32.1,48.48 v 0.04 z M 2994.24,4834.2 c 113.72,76.59 949.51,-293.1 1824.03,-816.68 872.21,-525.08 1705.64,-1118.42 1630.41,-1229.46 l -24.75,-38.65 -11.35,-8.89 c 2.43,1.73 14.97,16.96 -1.23,58.12 -37.16,121.41 -628.36,589.82 -1609.29,1177.9 -956.28,566.18 -1753.26,907.43 -1832.94,809.88 l 25.12,47.79 h -0.02 l 0.02,-0.01"
         style="fill:#f6d660;fill-opacity:1;fill-rule:evenodd;stroke:none"
         id="path96" />
      <path
         d="M 6628.81,3055.66 C 6700.72,3196.7 5925.5,3776.54 4964.37,4341.1 3981.13,4894.42 3272.49,5220.12 3143.05,5123 l -28.76,-51.98 c -0.25,-2.86 1.05,3.54 7.13,8.2 23.53,20.39 62.54,19.01 80.15,19.33 222.88,-3.31 859.43,-294.18 1752.55,-802.56 391.33,-226.3 1653.14,-1029.82 1648.33,-1255.78 0.33,-19.42 1.61,-23.42 -5.74,-33.04 l 32.1,48.48 v 0.04 z M 2994.24,4834.2 c 113.72,76.59 949.51,-293.1 1824.03,-816.68 872.21,-525.08 1705.64,-1118.42 1630.41,-1229.46 l -24.75,-38.65 -11.35,-8.89 c 2.43,1.73 14.97,16.96 -1.23,58.12 -37.16,121.41 -628.36,589.82 -1609.29,1177.9 -956.28,566.18 -1753.26,907.43 -1832.94,809.88 l 25.12,47.79 h -0.02 z"
         style="fill:none;stroke:#434a54;stroke-width:11.5009;stroke-linecap:round;stroke-linejoin:round;stroke-miterlimit:10;stroke-dasharray:none;stroke-opacity:1"
         id="path98" />
      <path
         d="m 3637.8,3779.8 c 0,-325.42 134.21,-619.74 351.63,-834.84 217.85,-215.56 513.89,-351.58 842.16,-351.58 329.96,0 629.4,133.05 846.32,347.78 216.92,214.7 351.35,511.04 351.41,837.6 h -0.04 v 1583.78 l -2391.76,2.82 0.24,-1585.56 h 0.05 -0.01"
         style="fill:#f5f7fa;fill-opacity:1;fill-rule:nonzero;stroke:none"
         id="path100" />
      <path
         d="m 3637.8,3779.8 c 0,-325.42 134.21,-619.74 351.63,-834.84 217.85,-215.56 513.89,-351.58 842.16,-351.58 329.96,0 629.4,133.05 846.32,347.78 216.92,214.7 351.35,511.04 351.41,837.6 h -0.04 v 1583.78 l -2391.76,2.82 0.24,-1585.56 h 0.05 z"
         style="fill:none;stroke:#434a54;stroke-width:13.4552;stroke-linecap:butt;stroke-linejoin:miter;stroke-miterlimit:10;stroke-dasharray:none;stroke-opacity:1"
         id="path102" />
      <path
         d="m 5515.93,4852.55 0.08,-977.82 -0.84,-103.43 h 0.02 c 0,-27.22 -1.65,-58.25 -4.85,-84.67 -18.64,-154.59 -90.24,-289.34 -196.29,-394.16 -124.16,-122.71 -295.52,-198.83 -484.38,-198.83 -187.87,0 -355.3,78.76 -479.98,202 -127.9,126.4 -202.03,299.72 -202.03,478.94 l -0.27,1080.46 1368.5,-2.45 0.04,-0.04 z M 3682.51,3777.6 v -0.9 c 0,-311.14 129.76,-594.48 337.91,-800.18 208.55,-206.1 495.79,-334.24 810.02,-334.24 315.86,0 602.51,127.21 810.19,332.52 207.63,205.3 336.32,488.66 336.36,800.88 h -0.04 V 5312.2 l -2293.06,0.37 -1.4,-1534.96"
         style="fill:#ed5565;fill-opacity:1;fill-rule:nonzero;stroke:none"
         id="path104" />
      <path
         d="m 5515.93,4852.55 0.08,-977.82 -0.84,-103.43 h 0.02 c 0,-27.22 -1.65,-58.25 -4.85,-84.67 -18.64,-154.59 -90.24,-289.34 -196.29,-394.16 -124.16,-122.71 -295.52,-198.83 -484.38,-198.83 -187.87,0 -355.3,78.76 -479.98,202 -127.9,126.4 -202.03,299.72 -202.03,478.94 l -0.27,1080.46 1368.5,-2.45 0.04,-0.04 z M 3682.51,3777.6 v -0.9 c 0,-311.14 129.76,-594.48 337.91,-800.18 208.55,-206.1 495.79,-334.24 810.02,-334.24 315.86,0 602.51,127.21 810.19,332.52 207.63,205.3 336.32,488.66 336.36,800.88 h -0.04 V 5312.2 l -2293.06,0.37 -1.4,-1534.96"
         style="fill:none;stroke:#434a54;stroke-width:10.183;stroke-linecap:butt;stroke-linejoin:miter;stroke-miterlimit:10;stroke-dasharray:none;stroke-opacity:1"
         id="path106" />
      <path
         d="m 3830.97,4911.4 c 2.72,110.42 81.63,136.56 82.19,136.95 0.58,0.37 85.24,-28.15 84.96,-137.97 l -167.15,1.02"
         style="fill:#f6d660;fill-opacity:1;fill-rule:nonzero;stroke:none"
         id="path108" />
      <path
         d="m 3830.97,4911.4 c 2.72,110.42 81.63,136.56 82.19,136.95 0.58,0.37 85.24,-28.15 84.96,-137.97 l -167.15,1.02"
         style="fill:none;stroke:#434a54;stroke-width:10.0357;stroke-linecap:butt;stroke-linejoin:miter;stroke-miterlimit:10;stroke-dasharray:none;stroke-opacity:1"
         id="path110" />
      <path
         d="m 3762.89,5046.2 -13.73,-126.89 83.4,-0.18 c 0.8,104.98 80.05,122.45 81.96,122.06 1.8,0.1 80.35,-23.21 82.44,-122.06 h 83.62 l -15.1,127.86 -302.58,-0.76 v -0.04 l -0.01,0.01"
         style="fill:#f6d660;fill-opacity:1;fill-rule:nonzero;stroke:none"
         id="path112" />
      <path
         d="m 3762.89,5046.2 -13.73,-126.89 83.4,-0.18 c 0.8,104.98 80.05,122.45 81.96,122.06 1.8,0.1 80.35,-23.21 82.44,-122.06 h 83.62 l -15.1,127.86 -302.58,-0.76 v -0.04 z"
         style="fill:none;stroke:#434a54;stroke-width:10.0357;stroke-linecap:butt;stroke-linejoin:miter;stroke-miterlimit:10;stroke-dasharray:none;stroke-opacity:1"
         id="path114" />
      <path
         d="m 3743.55,4918.8 h 341.34 c 7.19,0 13.07,-7.06 13.07,-15.68 0,-8.61 -5.88,-15.63 -13.07,-15.63 h -341.34 c -7.19,0 -13.08,7.02 -13.08,15.63 0,8.62 5.89,15.68 13.08,15.68"
         style="fill:#f6d660;fill-opacity:1;fill-rule:nonzero;stroke:none"
         id="path116" />
      <path
         d="m 3743.55,4918.8 h 341.34 c 7.19,0 13.07,-7.06 13.07,-15.68 0,-8.61 -5.88,-15.63 -13.07,-15.63 h -341.34 c -7.19,0 -13.08,7.02 -13.08,15.63 0,8.62 5.89,15.68 13.08,15.68 z"
         style="fill:none;stroke:#434a54;stroke-width:10.0357;stroke-linecap:butt;stroke-linejoin:miter;stroke-miterlimit:10;stroke-dasharray:none;stroke-opacity:1"
         id="path118" />
      <path
         d="m 3867.63,4919.4 c 0.37,66.25 45.56,85 45.8,84.97 0.02,0 47.18,-19.34 47.55,-84.97 h -93.35"
         style="fill:#f6d660;fill-opacity:1;fill-rule:nonzero;stroke:none"
         id="path120" />
      <path
         d="m 3867.63,4919.4 c 0.37,66.25 45.56,85 45.8,84.97 0.02,0 47.18,-19.34 47.55,-84.97 h -93.35"
         style="fill:none;stroke:#434a54;stroke-width:10.0357;stroke-linecap:butt;stroke-linejoin:miter;stroke-miterlimit:10;stroke-dasharray:none;stroke-opacity:1"
         id="path122" />
      <path
         d="m 3750.8,5099 h 327.22 c 6.9,0 12.55,-6.37 12.55,-14.09 0,-7.75 -5.65,-14.1 -12.55,-14.1 H 3750.8 c -6.89,0 -12.54,6.32 -12.54,14.1 0,7.72 5.65,14.09 12.54,14.09"
         style="fill:#f6d660;fill-opacity:1;fill-rule:nonzero;stroke:none"
         id="path124" />
      <path
         d="m 3750.8,5099 h 327.22 c 6.9,0 12.55,-6.37 12.55,-14.09 0,-7.75 -5.65,-14.1 -12.55,-14.1 H 3750.8 c -6.89,0 -12.54,6.32 -12.54,14.1 0,7.72 5.65,14.09 12.54,14.09 z"
         style="fill:none;stroke:#434a54;stroke-width:10.0357;stroke-linecap:butt;stroke-linejoin:miter;stroke-miterlimit:10;stroke-dasharray:none;stroke-opacity:1"
         id="path126" />
      <path
         d="m 3757.65,5070.6 h 312.98 c 6.59,0 11.99,-6.33 11.99,-14.08 0,-7.76 -5.4,-14.09 -11.99,-14.09 h -312.98 c -6.59,0 -11.99,6.33 -11.99,14.09 0,7.75 5.4,14.08 11.99,14.08"
         style="fill:#f6d660;fill-opacity:1;fill-rule:nonzero;stroke:none"
         id="path128" />
      <path
         d="m 3757.65,5070.6 h 312.98 c 6.59,0 11.99,-6.33 11.99,-14.08 0,-7.76 -5.4,-14.09 -11.99,-14.09 h -312.98 c -6.59,0 -11.99,6.33 -11.99,14.09 0,7.75 5.4,14.08 11.99,14.08 z"
         style="fill:none;stroke:#434a54;stroke-width:10.0357;stroke-linecap:butt;stroke-linejoin:miter;stroke-miterlimit:10;stroke-dasharray:none;stroke-opacity:1"
         id="path130" />
      <path
         d="m 3858.76,5282.4 24.72,-0.04 v -17.43 h 18.03 v 17.82 l 25.31,-0.08 v -17.75 h 18.08 v 17.82 h 25.33 l -0.03,-40.24 c 0,-6.31 -5.12,-10.4 -11.05,-10.4 h -88.86 c -5.97,0 -11.48,4.74 -11.49,10.53 l -0.06,39.76 h 0.01 l 0.01,0.01"
         style="fill:#f6d660;fill-opacity:1;fill-rule:nonzero;stroke:none"
         id="path132" />
      <path
         d="m 3858.76,5282.4 24.72,-0.04 v -17.43 h 18.03 v 17.82 l 25.31,-0.08 v -17.75 h 18.08 v 17.82 h 25.33 l -0.03,-40.24 c 0,-6.31 -5.12,-10.4 -11.05,-10.4 h -88.86 c -5.97,0 -11.48,4.74 -11.49,10.53 l -0.06,39.76 h 0.01 z"
         style="fill:none;stroke:#434a54;stroke-width:10.0357;stroke-linecap:butt;stroke-linejoin:miter;stroke-miterlimit:10;stroke-dasharray:none;stroke-opacity:1"
         id="path134" />
      <path
         d="m 3951.83,5228.6 5.58,-129.03 -86.68,0.32 5.74,129.05 75.36,-0.34"
         style="fill:#f6d660;fill-opacity:1;fill-rule:nonzero;stroke:none"
         id="path136" />
      <path
         d="m 3951.83,5228.6 5.58,-129.03 -86.68,0.32 5.74,129.05 75.36,-0.34"
         style="fill:none;stroke:#434a54;stroke-width:10.0357;stroke-linecap:butt;stroke-linejoin:miter;stroke-miterlimit:10;stroke-dasharray:none;stroke-opacity:1"
         id="path138" />
      <path
         d="m 3846.08,5168.8 2.65,-69.55 -83.1,-0.04 2.34,69.59 h 78.12 -0.02 0.01"
         style="fill:#f6d660;fill-opacity:1;fill-rule:nonzero;stroke:none"
         id="path140" />
      <path
         d="m 3846.08,5168.8 2.65,-69.55 -83.1,-0.04 2.34,69.59 h 78.12 -0.02 z"
         style="fill:none;stroke:#434a54;stroke-width:10.0357;stroke-linecap:butt;stroke-linejoin:miter;stroke-miterlimit:10;stroke-dasharray:none;stroke-opacity:1"
         id="path142" />
      <path
         d="m 4059.78,5168.8 2.64,-69.55 -83.1,-0.04 2.35,69.59 h 78.12 -0.02 0.01"
         style="fill:#f6d660;fill-opacity:1;fill-rule:nonzero;stroke:none"
         id="path144" />
      <path
         d="m 4059.78,5168.8 2.64,-69.55 -83.1,-0.04 2.35,69.59 h 78.12 -0.02 z"
         style="fill:none;stroke:#434a54;stroke-width:10.0357;stroke-linecap:butt;stroke-linejoin:miter;stroke-miterlimit:10;stroke-dasharray:none;stroke-opacity:1"
         id="path146" />
      <path
         d="m 3752.61,5219.2 24.16,-0.06 v -17.45 h 17.68 v 17.86 l 24.76,-0.08 v -17.78 h 17.71 v 17.85 l 24.78,-0.04 -0.03,-40.24 c 0,-6.28 -5.01,-10.37 -10.81,-10.37 h -86.95 c -5.83,0 -11.25,4.71 -11.26,10.51 l -0.07,39.78 h 0.02 l 0.01,0.02"
         style="fill:#f6d660;fill-opacity:1;fill-rule:nonzero;stroke:none"
         id="path148" />
      <path
         d="m 3752.61,5219.2 24.16,-0.06 v -17.45 h 17.68 v 17.86 l 24.76,-0.08 v -17.78 h 17.71 v 17.85 l 24.78,-0.04 -0.03,-40.24 c 0,-6.28 -5.01,-10.37 -10.81,-10.37 h -86.95 c -5.83,0 -11.25,4.71 -11.26,10.51 l -0.07,39.78 h 0.02 z"
         style="fill:none;stroke:#434a54;stroke-width:10.0357;stroke-linecap:butt;stroke-linejoin:miter;stroke-miterlimit:10;stroke-dasharray:none;stroke-opacity:1"
         id="path150" />
      <path
         d="m 3966.31,5219.2 24.16,-0.06 v -17.45 h 17.67 v 17.86 l 24.77,-0.08 v -17.78 h 17.71 v 17.85 l 24.78,-0.04 -0.04,-40.24 c 0,-6.28 -5.01,-10.37 -10.8,-10.37 h -86.96 c -5.82,0 -11.24,4.71 -11.26,10.51 l -0.06,39.78 h 0.02 l 0.01,0.02"
         style="fill:#f6d660;fill-opacity:1;fill-rule:nonzero;stroke:none"
         id="path152" />
      <path
         d="m 3966.31,5219.2 24.16,-0.06 v -17.45 h 17.67 v 17.86 l 24.77,-0.08 v -17.78 h 17.71 v 17.85 l 24.78,-0.04 -0.04,-40.24 c 0,-6.28 -5.01,-10.37 -10.8,-10.37 h -86.96 c -5.82,0 -11.24,4.71 -11.26,10.51 l -0.06,39.78 h 0.02 z"
         style="fill:none;stroke:#434a54;stroke-width:10.0357;stroke-linecap:butt;stroke-linejoin:miter;stroke-miterlimit:10;stroke-dasharray:none;stroke-opacity:1"
         id="path154" />
      <path
         d="m 3905.7,5187.8 c -0.53,12.54 17.66,12.68 17.44,0 v -30.73 h -17.44 v 30.72"
         style="fill:#434a54;fill-opacity:1;fill-rule:nonzero;stroke:none"
         id="path156" />
      <path
         d="m 3798.34,5143.2 c -0.06,12.12 16.86,12.36 16.65,0 v -23.74 h -16.65 v 23.74"
         style="fill:#434a54;fill-opacity:1;fill-rule:nonzero;stroke:none"
         id="path158" />
      <path
         d="m 4012.68,5143.2 c -0.06,12.12 16.86,12.36 16.65,0 v -23.74 h -16.64 v 23.74"
         style="fill:#434a54;fill-opacity:1;fill-rule:nonzero;stroke:none"
         id="path160" />
      <path
         d="m 3830.97,3985 c 2.72,110.42 81.63,136.56 82.19,136.95 0.58,0.37 85.24,-28.15 84.96,-137.97 l -167.15,1.02"
         style="fill:#f6d660;fill-opacity:1;fill-rule:nonzero;stroke:none"
         id="path162" />
      <path
         d="m 3830.97,3985 c 2.72,110.42 81.63,136.56 82.19,136.95 0.58,0.37 85.24,-28.15 84.96,-137.97 l -167.15,1.02"
         style="fill:none;stroke:#434a54;stroke-width:10.0357;stroke-linecap:butt;stroke-linejoin:miter;stroke-miterlimit:10;stroke-dasharray:none;stroke-opacity:1"
         id="path164" />
      <path
         d="m 3762.89,4119.8 -13.73,-126.89 83.4,-0.18 c 0.8,104.99 80.05,122.45 81.96,122.06 1.8,0.1 80.35,-23.21 82.44,-122.06 h 83.62 l -15.1,127.86 -302.58,-0.75 v -0.04 h -0.01"
         style="fill:#f6d660;fill-opacity:1;fill-rule:nonzero;stroke:none"
         id="path166" />
      <path
         d="m 3762.89,4119.8 -13.73,-126.89 83.4,-0.18 c 0.8,104.99 80.05,122.45 81.96,122.06 1.8,0.1 80.35,-23.21 82.44,-122.06 h 83.62 l -15.1,127.86 -302.58,-0.75 v -0.04 z"
         style="fill:none;stroke:#434a54;stroke-width:10.0357;stroke-linecap:butt;stroke-linejoin:miter;stroke-miterlimit:10;stroke-dasharray:none;stroke-opacity:1"
         id="path168" />
      <path
         d="m 3743.55,3992.4 h 341.34 c 7.19,0 13.07,-7.05 13.07,-15.68 0,-8.61 -5.88,-15.63 -13.07,-15.63 h -341.34 c -7.19,0 -13.08,7.02 -13.08,15.63 0,8.63 5.89,15.68 13.08,15.68"
         style="fill:#f6d660;fill-opacity:1;fill-rule:nonzero;stroke:none"
         id="path170" />
      <path
         d="m 3743.55,3992.4 h 341.34 c 7.19,0 13.07,-7.05 13.07,-15.68 0,-8.61 -5.88,-15.63 -13.07,-15.63 h -341.34 c -7.19,0 -13.08,7.02 -13.08,15.63 0,8.63 5.89,15.68 13.08,15.68 z"
         style="fill:none;stroke:#434a54;stroke-width:10.0357;stroke-linecap:butt;stroke-linejoin:miter;stroke-miterlimit:10;stroke-dasharray:none;stroke-opacity:1"
         id="path172" />
      <path
         d="m 3867.63,3993 c 0.37,66.26 45.56,85.01 45.8,84.97 0.02,0 47.18,-19.33 47.55,-84.97 h -93.35"
         style="fill:#f6d660;fill-opacity:1;fill-rule:nonzero;stroke:none"
         id="path174" />
      <path
         d="m 3867.63,3993 c 0.37,66.26 45.56,85.01 45.8,84.97 0.02,0 47.18,-19.33 47.55,-84.97 h -93.35"
         style="fill:none;stroke:#434a54;stroke-width:10.0357;stroke-linecap:butt;stroke-linejoin:miter;stroke-miterlimit:10;stroke-dasharray:none;stroke-opacity:1"
         id="path176" />
      <path
         d="m 3750.8,4172.6 h 327.22 c 6.9,0 12.55,-6.36 12.55,-14.09 0,-7.74 -5.65,-14.09 -12.55,-14.09 H 3750.8 c -6.89,0 -12.54,6.31 -12.54,14.09 0,7.73 5.65,14.09 12.54,14.09"
         style="fill:#f6d660;fill-opacity:1;fill-rule:nonzero;stroke:none"
         id="path178" />
      <path
         d="m 3750.8,4172.6 h 327.22 c 6.9,0 12.55,-6.36 12.55,-14.09 0,-7.74 -5.65,-14.09 -12.55,-14.09 H 3750.8 c -6.89,0 -12.54,6.31 -12.54,14.09 0,7.73 5.65,14.09 12.54,14.09 z"
         style="fill:none;stroke:#434a54;stroke-width:10.0357;stroke-linecap:butt;stroke-linejoin:miter;stroke-miterlimit:10;stroke-dasharray:none;stroke-opacity:1"
         id="path180" />
      <path
         d="m 3757.65,4144.2 h 312.98 c 6.59,0 11.99,-6.33 11.99,-14.07 0,-7.76 -5.4,-14.1 -11.99,-14.1 h -312.98 c -6.59,0 -11.99,6.34 -11.99,14.1 0,7.74 5.4,14.07 11.99,14.07"
         style="fill:#f6d660;fill-opacity:1;fill-rule:nonzero;stroke:none"
         id="path182" />
      <path
         d="m 3757.65,4144.2 h 312.98 c 6.59,0 11.99,-6.33 11.99,-14.07 0,-7.76 -5.4,-14.1 -11.99,-14.1 h -312.98 c -6.59,0 -11.99,6.34 -11.99,14.1 0,7.74 5.4,14.07 11.99,14.07 z"
         style="fill:none;stroke:#434a54;stroke-width:10.0357;stroke-linecap:butt;stroke-linejoin:miter;stroke-miterlimit:10;stroke-dasharray:none;stroke-opacity:1"
         id="path184" />
      <path
         d="m 3858.76,4356 24.72,-0.04 v -17.42 h 18.03 v 17.81 l 25.31,-0.08 v -17.74 h 18.08 v 17.81 h 25.33 l -0.03,-40.23 c 0,-6.32 -5.12,-10.41 -11.05,-10.41 h -88.86 c -5.97,0 -11.48,4.75 -11.49,10.53 l -0.06,39.76 h 0.01 l 0.01,0.01"
         style="fill:#f6d660;fill-opacity:1;fill-rule:nonzero;stroke:none"
         id="path186" />
      <path
         d="m 3858.76,4356 24.72,-0.04 v -17.42 h 18.03 v 17.81 l 25.31,-0.08 v -17.74 h 18.08 v 17.81 h 25.33 l -0.03,-40.23 c 0,-6.32 -5.12,-10.41 -11.05,-10.41 h -88.86 c -5.97,0 -11.48,4.75 -11.49,10.53 l -0.06,39.76 h 0.01 z"
         style="fill:none;stroke:#434a54;stroke-width:10.0357;stroke-linecap:butt;stroke-linejoin:miter;stroke-miterlimit:10;stroke-dasharray:none;stroke-opacity:1"
         id="path188" />
      <path
         d="m 3951.83,4302.2 5.58,-129.02 -86.68,0.31 5.74,129.05 75.36,-0.34"
         style="fill:#f6d660;fill-opacity:1;fill-rule:nonzero;stroke:none"
         id="path190" />
      <path
         d="m 3951.83,4302.2 5.58,-129.02 -86.68,0.31 5.74,129.05 75.36,-0.34"
         style="fill:none;stroke:#434a54;stroke-width:10.0357;stroke-linecap:butt;stroke-linejoin:miter;stroke-miterlimit:10;stroke-dasharray:none;stroke-opacity:1"
         id="path192" />
      <path
         d="m 3846.08,4242.4 2.65,-69.55 -83.1,-0.04 2.34,69.59 h 78.12 -0.02 0.01"
         style="fill:#f6d660;fill-opacity:1;fill-rule:nonzero;stroke:none"
         id="path194" />
      <path
         d="m 3846.08,4242.4 2.65,-69.55 -83.1,-0.04 2.34,69.59 h 78.12 -0.02 z"
         style="fill:none;stroke:#434a54;stroke-width:10.0357;stroke-linecap:butt;stroke-linejoin:miter;stroke-miterlimit:10;stroke-dasharray:none;stroke-opacity:1"
         id="path196" />
      <path
         d="m 4059.78,4242.4 2.64,-69.55 -83.1,-0.04 2.35,69.59 h 78.12 -0.02 0.01"
         style="fill:#f6d660;fill-opacity:1;fill-rule:nonzero;stroke:none"
         id="path198" />
      <path
         d="m 4059.78,4242.4 2.64,-69.55 -83.1,-0.04 2.35,69.59 h 78.12 -0.02 z"
         style="fill:none;stroke:#434a54;stroke-width:10.0357;stroke-linecap:butt;stroke-linejoin:miter;stroke-miterlimit:10;stroke-dasharray:none;stroke-opacity:1"
         id="path200" />
      <path
         d="m 3752.61,4292.8 24.16,-0.06 v -17.44 h 17.68 v 17.85 l 24.76,-0.08 v -17.78 h 17.71 v 17.85 l 24.78,-0.04 -0.03,-40.23 c 0,-6.28 -5.01,-10.37 -10.81,-10.37 h -86.95 c -5.83,0 -11.25,4.7 -11.26,10.51 l -0.07,39.77 h 0.02 l 0.01,0.02"
         style="fill:#f6d660;fill-opacity:1;fill-rule:nonzero;stroke:none"
         id="path202" />
      <path
         d="m 3752.61,4292.8 24.16,-0.06 v -17.44 h 17.68 v 17.85 l 24.76,-0.08 v -17.78 h 17.71 v 17.85 l 24.78,-0.04 -0.03,-40.23 c 0,-6.28 -5.01,-10.37 -10.81,-10.37 h -86.95 c -5.83,0 -11.25,4.7 -11.26,10.51 l -0.07,39.77 h 0.02 z"
         style="fill:none;stroke:#434a54;stroke-width:10.0357;stroke-linecap:butt;stroke-linejoin:miter;stroke-miterlimit:10;stroke-dasharray:none;stroke-opacity:1"
         id="path204" />
      <path
         d="m 3966.31,4292.8 24.16,-0.06 v -17.44 h 17.67 v 17.85 l 24.77,-0.08 v -17.78 h 17.71 v 17.85 l 24.78,-0.04 -0.04,-40.23 c 0,-6.28 -5.01,-10.37 -10.8,-10.37 h -86.96 c -5.82,0 -11.24,4.7 -11.26,10.51 l -0.06,39.77 h 0.02 l 0.01,0.02"
         style="fill:#f6d660;fill-opacity:1;fill-rule:nonzero;stroke:none"
         id="path206" />
      <path
         d="m 3966.31,4292.8 24.16,-0.06 v -17.44 h 17.67 v 17.85 l 24.77,-0.08 v -17.78 h 17.71 v 17.85 l 24.78,-0.04 -0.04,-40.23 c 0,-6.28 -5.01,-10.37 -10.8,-10.37 h -86.96 c -5.82,0 -11.24,4.7 -11.26,10.51 l -0.06,39.77 h 0.02 z"
         style="fill:none;stroke:#434a54;stroke-width:10.0357;stroke-linecap:butt;stroke-linejoin:miter;stroke-miterlimit:10;stroke-dasharray:none;stroke-opacity:1"
         id="path208" />
      <path
         d="m 3905.7,4261.4 c -0.53,12.55 17.66,12.69 17.44,0 v -30.72 h -17.44 v 30.72"
         style="fill:#434a54;fill-opacity:1;fill-rule:nonzero;stroke:none"
         id="path210" />
      <path
         d="m 3798.34,4216.8 c -0.06,12.12 16.86,12.37 16.65,0 v -23.74 h -16.65 v 23.74"
         style="fill:#434a54;fill-opacity:1;fill-rule:nonzero;stroke:none"
         id="path212" />
      <path
         d="m 4012.68,4216.8 c -0.06,12.12 16.86,12.37 16.65,0 v -23.74 h -16.64 v 23.74"
         style="fill:#434a54;fill-opacity:1;fill-rule:nonzero;stroke:none"
         id="path214" />
      <path
         d="m 4194.77,3020.73 c -77,79.71 -40.08,153.73 -39.96,154.4 0.14,0.66 80.18,40.22 158.46,-37.36 l -118.5,-117.04"
         style="fill:#f6d660;fill-opacity:1;fill-rule:nonzero;stroke:none"
         id="path216" />
      <path
         d="m 4194.77,3020.73 c -77,79.71 -40.08,153.73 -39.96,154.4 0.14,0.66 80.18,40.22 158.46,-37.36 l -118.5,-117.04"
         style="fill:none;stroke:#434a54;stroke-width:10.0357;stroke-linecap:butt;stroke-linejoin:miter;stroke-miterlimit:10;stroke-dasharray:none;stroke-opacity:1"
         id="path218" />
      <path
         d="m 4050.46,3067.74 81.01,-99.09 58.9,58.64 c -74.47,74.54 -31.11,142.67 -29.48,143.75 1.19,1.34 73.2,40.26 145.32,-27.92 l 58.92,58.91 -102.02,79.46 -212.67,-213.72 0.03,-0.03 h -0.01"
         style="fill:#f6d660;fill-opacity:1;fill-rule:nonzero;stroke:none"
         id="path220" />
      <path
         d="m 4050.46,3067.74 81.01,-99.09 58.9,58.64 c -74.47,74.54 -31.11,142.67 -29.48,143.75 1.19,1.34 73.2,40.26 145.32,-27.92 l 58.92,58.91 -102.02,79.46 -212.67,-213.72 0.03,-0.03 z"
         style="fill:none;stroke:#434a54;stroke-width:10.0357;stroke-linecap:butt;stroke-linejoin:miter;stroke-miterlimit:10;stroke-dasharray:none;stroke-opacity:1"
         id="path222" />
      <path
         d="m 4127.89,2964.35 240.51,240.49 c 5.07,5.07 14.25,4.24 20.41,-1.83 6.16,-6.07 7.03,-15.16 1.96,-20.23 l -240.51,-240.49 c -5.07,-5.07 -14.23,-4.27 -20.38,1.8 -6.16,6.07 -7.06,15.19 -1.99,20.26"
         style="fill:#f6d660;fill-opacity:1;fill-rule:nonzero;stroke:none"
         id="path224" />
      <path
         d="m 4127.89,2964.35 240.51,240.49 c 5.07,5.07 14.25,4.24 20.41,-1.83 6.16,-6.07 7.03,-15.16 1.96,-20.23 l -240.51,-240.49 c -5.07,-5.07 -14.23,-4.27 -20.38,1.8 -6.16,6.07 -7.06,15.19 -1.99,20.26 z"
         style="fill:none;stroke:#434a54;stroke-width:10.0357;stroke-linecap:butt;stroke-linejoin:miter;stroke-miterlimit:10;stroke-dasharray:none;stroke-opacity:1"
         id="path226" />
      <path
         d="m 4214.88,3052.19 c -47.08,46.95 -28.64,92 -28.45,92.14 0.02,0.01 47.06,19.62 94.23,-26.37 l -65.78,-65.77"
         style="fill:#f6d660;fill-opacity:1;fill-rule:nonzero;stroke:none"
         id="path228" />
      <path
         d="m 4214.88,3052.19 c -47.08,46.95 -28.64,92 -28.45,92.14 0.02,0.01 47.06,19.62 94.23,-26.37 l -65.78,-65.77"
         style="fill:none;stroke:#434a54;stroke-width:10.0357;stroke-linecap:butt;stroke-linejoin:miter;stroke-miterlimit:10;stroke-dasharray:none;stroke-opacity:1"
         id="path230" />
      <path
         d="m 4004.21,3096.43 230.57,230.54 c 4.85,4.86 13.38,4.35 18.9,-1.09 5.54,-5.46 6.1,-13.91 1.24,-18.77 l -230.56,-230.54 c -4.86,-4.86 -13.35,-4.39 -18.91,1.09 -5.52,5.44 -6.09,13.91 -1.24,18.77"
         style="fill:#f6d660;fill-opacity:1;fill-rule:nonzero;stroke:none"
         id="path232" />
      <path
         d="m 4004.21,3096.43 230.57,230.54 c 4.85,4.86 13.38,4.35 18.9,-1.09 5.54,-5.46 6.1,-13.91 1.24,-18.77 l -230.56,-230.54 c -4.86,-4.86 -13.35,-4.39 -18.91,1.09 -5.52,5.44 -6.09,13.91 -1.24,18.77 z"
         style="fill:none;stroke:#434a54;stroke-width:10.0357;stroke-linecap:butt;stroke-linejoin:miter;stroke-miterlimit:10;stroke-dasharray:none;stroke-opacity:1"
         id="path234" />
      <path
         d="m 4029.34,3081.24 220.52,220.52 c 4.65,4.64 12.98,3.98 18.51,-1.47 5.55,-5.47 6.27,-13.74 1.63,-18.38 l -220.54,-220.52 c -4.64,-4.64 -12.97,-3.98 -18.52,1.48 -5.53,5.46 -6.25,13.73 -1.6,18.37"
         style="fill:#f6d660;fill-opacity:1;fill-rule:nonzero;stroke:none"
         id="path236" />
      <path
         d="m 4029.34,3081.24 220.52,220.52 c 4.65,4.64 12.98,3.98 18.51,-1.47 5.55,-5.47 6.27,-13.74 1.63,-18.38 l -220.54,-220.52 c -4.64,-4.64 -12.97,-3.98 -18.52,1.48 -5.53,5.46 -6.25,13.73 -1.6,18.37 z"
         style="fill:none;stroke:#434a54;stroke-width:10.0357;stroke-linecap:butt;stroke-linejoin:miter;stroke-miterlimit:10;stroke-dasharray:none;stroke-opacity:1"
         id="path238" />
      <path
         d="m 3949.21,3301.72 17.45,17.38 12.45,-12.28 12.71,12.71 -12.74,12.55 17.89,17.78 12.69,-12.51 12.74,12.74 -12.73,12.56 17.84,17.85 28.73,-28.38 c 4.51,-4.45 3.83,-10.94 -0.35,-15.12 l -62.6,-62.6 c -4.21,-4.21 -11.48,-4.75 -15.63,-0.68 l -28.46,27.97 0.02,0.01 -0.01,0.02"
         style="fill:#f6d660;fill-opacity:1;fill-rule:nonzero;stroke:none"
         id="path240" />
      <path
         d="m 3949.21,3301.72 17.45,17.38 12.45,-12.28 12.71,12.71 -12.74,12.55 17.89,17.78 12.69,-12.51 12.74,12.74 -12.73,12.56 17.84,17.85 28.73,-28.38 c 4.51,-4.45 3.83,-10.94 -0.35,-15.12 l -62.6,-62.6 c -4.21,-4.21 -11.48,-4.75 -15.63,-0.68 l -28.46,27.97 0.02,0.01 z"
         style="fill:none;stroke:#434a54;stroke-width:10.0357;stroke-linecap:butt;stroke-linejoin:miter;stroke-miterlimit:10;stroke-dasharray:none;stroke-opacity:1"
         id="path242" />
      <path
         d="m 4053.24,3329.38 96.14,-86.98 -61.3,-60.85 -88.18,94.97 53.34,52.86"
         style="fill:#f6d660;fill-opacity:1;fill-rule:nonzero;stroke:none"
         id="path244" />
      <path
         d="m 4053.24,3329.38 96.14,-86.98 -61.3,-60.85 -88.18,94.97 53.34,52.86"
         style="fill:none;stroke:#434a54;stroke-width:10.0357;stroke-linecap:butt;stroke-linejoin:miter;stroke-miterlimit:10;stroke-dasharray:none;stroke-opacity:1"
         id="path246" />
      <path
         d="m 4021.46,3212.74 51.57,-47.14 -58.52,-58.58 -48.08,50.68 55.04,55.05 -0.01,-0.02 v 0.01"
         style="fill:#f6d660;fill-opacity:1;fill-rule:nonzero;stroke:none"
         id="path248" />
      <path
         d="m 4021.46,3212.74 51.57,-47.14 -58.52,-58.58 -48.08,50.68 55.04,55.05 -0.01,-0.02 z"
         style="fill:none;stroke:#434a54;stroke-width:10.0357;stroke-linecap:butt;stroke-linejoin:miter;stroke-miterlimit:10;stroke-dasharray:none;stroke-opacity:1"
         id="path250" />
      <path
         d="m 4172.03,3363.3 51.57,-47.14 -58.52,-58.58 -48.08,50.68 55.05,55.05 -0.01,-0.02 -0.01,0.01"
         style="fill:#f6d660;fill-opacity:1;fill-rule:nonzero;stroke:none"
         id="path252" />
      <path
         d="m 4172.03,3363.3 51.57,-47.14 -58.52,-58.58 -48.08,50.68 55.05,55.05 -0.01,-0.02 z"
         style="fill:none;stroke:#434a54;stroke-width:10.0357;stroke-linecap:butt;stroke-linejoin:miter;stroke-miterlimit:10;stroke-dasharray:none;stroke-opacity:1"
         id="path254" />
      <path
         d="m 3919.58,3182.4 17.07,16.98 12.47,-12.3 12.45,12.46 -12.75,12.58 17.5,17.39 12.71,-12.53 12.48,12.48 -12.76,12.58 17.49,17.43 28.73,-28.38 c 4.48,-4.43 3.88,-10.84 -0.2,-14.92 l -61.27,-61.26 c -4.11,-4.11 -11.29,-4.61 -15.45,-0.53 l -28.47,27.98 0.01,0.01 -0.01,0.03"
         style="fill:#f6d660;fill-opacity:1;fill-rule:nonzero;stroke:none"
         id="path256" />
      <path
         d="m 3919.58,3182.4 17.07,16.98 12.47,-12.3 12.45,12.46 -12.75,12.58 17.5,17.39 12.71,-12.53 12.48,12.48 -12.76,12.58 17.49,17.43 28.73,-28.38 c 4.48,-4.43 3.88,-10.84 -0.2,-14.92 l -61.27,-61.26 c -4.11,-4.11 -11.29,-4.61 -15.45,-0.53 l -28.47,27.98 0.01,0.01 z"
         style="fill:none;stroke:#434a54;stroke-width:10.0357;stroke-linecap:butt;stroke-linejoin:miter;stroke-miterlimit:10;stroke-dasharray:none;stroke-opacity:1"
         id="path258" />
      <path
         d="m 4070.16,3332.96 17.06,16.98 12.47,-12.29 12.45,12.45 -12.75,12.58 17.5,17.39 12.71,-12.53 12.48,12.48 -12.76,12.58 17.49,17.43 28.73,-28.38 c 4.48,-4.42 3.88,-10.84 -0.2,-14.92 l -61.27,-61.26 c -4.1,-4.11 -11.29,-4.61 -15.45,-0.53 l -28.47,27.98 0.02,0.02 -0.01,0.02"
         style="fill:#f6d660;fill-opacity:1;fill-rule:nonzero;stroke:none"
         id="path260" />
      <path
         d="m 4070.16,3332.96 17.06,16.98 12.47,-12.29 12.45,12.45 -12.75,12.58 17.5,17.39 12.71,-12.53 12.48,12.48 -12.76,12.58 17.49,17.43 28.73,-28.38 c 4.48,-4.42 3.88,-10.84 -0.2,-14.92 l -61.27,-61.26 c -4.1,-4.11 -11.29,-4.61 -15.45,-0.53 l -28.47,27.98 0.02,0.02 z"
         style="fill:none;stroke:#434a54;stroke-width:10.0357;stroke-linecap:butt;stroke-linejoin:miter;stroke-miterlimit:10;stroke-dasharray:none;stroke-opacity:1"
         id="path262" />
      <path
         d="m 4049.89,3268.13 c -9.34,8.46 3.38,21.38 12.29,12.29 l 21.97,-21.65 -12.3,-12.29 -21.95,21.65"
         style="fill:#434a54;fill-opacity:1;fill-rule:nonzero;stroke:none"
         id="path264" />
      <path
         d="m 4006.12,3161.06 c -8.7,8.5 3.04,20.59 11.73,11.73 l 16.96,-16.73 -11.72,-11.72 -16.97,16.73"
         style="fill:#434a54;fill-opacity:1;fill-rule:nonzero;stroke:none"
         id="path266" />
      <path
         d="m 4157.14,3312.08 c -8.7,8.49 3.05,20.59 11.73,11.73 l 16.97,-16.73 -11.72,-11.73 -16.97,16.73"
         style="fill:#434a54;fill-opacity:1;fill-rule:nonzero;stroke:none"
         id="path268" />
      <path
         d="m 4751.78,4911.4 c 2.71,110.42 81.62,136.56 82.19,136.95 0.57,0.37 85.23,-28.15 84.95,-137.97 l -167.14,1.02"
         style="fill:#f6d660;fill-opacity:1;fill-rule:nonzero;stroke:none"
         id="path270" />
      <path
         d="m 4751.78,4911.4 c 2.71,110.42 81.62,136.56 82.19,136.95 0.57,0.37 85.23,-28.15 84.95,-137.97 l -167.14,1.02"
         style="fill:none;stroke:#434a54;stroke-width:10.0357;stroke-linecap:butt;stroke-linejoin:miter;stroke-miterlimit:10;stroke-dasharray:none;stroke-opacity:1"
         id="path272" />
      <path
         d="m 4683.7,5046.2 -13.74,-126.89 83.4,-0.18 c 0.81,104.98 80.05,122.45 81.97,122.06 1.79,0.1 80.35,-23.21 82.44,-122.06 h 83.62 l -15.1,127.86 -302.59,-0.76 v -0.04 0.01"
         style="fill:#f6d660;fill-opacity:1;fill-rule:nonzero;stroke:none"
         id="path274" />
      <path
         d="m 4683.7,5046.2 -13.74,-126.89 83.4,-0.18 c 0.81,104.98 80.05,122.45 81.97,122.06 1.79,0.1 80.35,-23.21 82.44,-122.06 h 83.62 l -15.1,127.86 -302.59,-0.76 v -0.04 z"
         style="fill:none;stroke:#434a54;stroke-width:10.0357;stroke-linecap:butt;stroke-linejoin:miter;stroke-miterlimit:10;stroke-dasharray:none;stroke-opacity:1"
         id="path276" />
      <path
         d="m 4664.36,4918.8 h 341.34 c 7.19,0 13.07,-7.06 13.07,-15.68 0,-8.61 -5.88,-15.63 -13.07,-15.63 h -341.34 c -7.2,0 -13.08,7.02 -13.08,15.63 0,8.62 5.88,15.68 13.08,15.68"
         style="fill:#f6d660;fill-opacity:1;fill-rule:nonzero;stroke:none"
         id="path278" />
      <path
         d="m 4664.36,4918.8 h 341.34 c 7.19,0 13.07,-7.06 13.07,-15.68 0,-8.61 -5.88,-15.63 -13.07,-15.63 h -341.34 c -7.2,0 -13.08,7.02 -13.08,15.63 0,8.62 5.88,15.68 13.08,15.68 z"
         style="fill:none;stroke:#434a54;stroke-width:10.0357;stroke-linecap:butt;stroke-linejoin:miter;stroke-miterlimit:10;stroke-dasharray:none;stroke-opacity:1"
         id="path280" />
      <path
         d="m 4788.44,4919.4 c 0.37,66.25 45.56,85 45.79,84.97 0.02,0 47.19,-19.34 47.56,-84.97 h -93.35"
         style="fill:#f6d660;fill-opacity:1;fill-rule:nonzero;stroke:none"
         id="path282" />
      <path
         d="m 4788.44,4919.4 c 0.37,66.25 45.56,85 45.79,84.97 0.02,0 47.19,-19.34 47.56,-84.97 h -93.35"
         style="fill:none;stroke:#434a54;stroke-width:10.0357;stroke-linecap:butt;stroke-linejoin:miter;stroke-miterlimit:10;stroke-dasharray:none;stroke-opacity:1"
         id="path284" />
      <path
         d="m 4671.61,5099 h 327.22 c 6.89,0 12.54,-6.37 12.54,-14.09 0,-7.75 -5.65,-14.1 -12.54,-14.1 h -327.22 c -6.89,0 -12.54,6.32 -12.54,14.1 0,7.72 5.65,14.09 12.54,14.09"
         style="fill:#f6d660;fill-opacity:1;fill-rule:nonzero;stroke:none"
         id="path286" />
      <path
         d="m 4671.61,5099 h 327.22 c 6.89,0 12.54,-6.37 12.54,-14.09 0,-7.75 -5.65,-14.1 -12.54,-14.1 h -327.22 c -6.89,0 -12.54,6.32 -12.54,14.1 0,7.72 5.65,14.09 12.54,14.09 z"
         style="fill:none;stroke:#434a54;stroke-width:10.0357;stroke-linecap:butt;stroke-linejoin:miter;stroke-miterlimit:10;stroke-dasharray:none;stroke-opacity:1"
         id="path288" />
      <path
         d="m 4678.46,5070.6 h 312.98 c 6.59,0 11.99,-6.33 11.99,-14.08 0,-7.76 -5.4,-14.09 -11.99,-14.09 h -312.98 c -6.59,0 -12,6.33 -12,14.09 0,7.75 5.41,14.08 12,14.08"
         style="fill:#f6d660;fill-opacity:1;fill-rule:nonzero;stroke:none"
         id="path290" />
      <path
         d="m 4678.46,5070.6 h 312.98 c 6.59,0 11.99,-6.33 11.99,-14.08 0,-7.76 -5.4,-14.09 -11.99,-14.09 h -312.98 c -6.59,0 -12,6.33 -12,14.09 0,7.75 5.41,14.08 12,14.08 z"
         style="fill:none;stroke:#434a54;stroke-width:10.0357;stroke-linecap:butt;stroke-linejoin:miter;stroke-miterlimit:10;stroke-dasharray:none;stroke-opacity:1"
         id="path292" />
      <path
         d="m 4779.58,5282.4 24.7,-0.04 v -17.43 h 18.03 v 17.82 l 25.32,-0.08 v -17.75 h 18.08 v 17.82 h 25.33 L 4891,5242.5 c 0,-6.31 -5.12,-10.4 -11.05,-10.4 h -88.85 c -5.97,0 -11.48,4.74 -11.5,10.53 l -0.06,39.76 h 0.02 l 0.02,0.01"
         style="fill:#f6d660;fill-opacity:1;fill-rule:nonzero;stroke:none"
         id="path294" />
      <path
         d="m 4779.58,5282.4 24.7,-0.04 v -17.43 h 18.03 v 17.82 l 25.32,-0.08 v -17.75 h 18.08 v 17.82 h 25.33 L 4891,5242.5 c 0,-6.31 -5.12,-10.4 -11.05,-10.4 h -88.85 c -5.97,0 -11.48,4.74 -11.5,10.53 l -0.06,39.76 h 0.02 z"
         style="fill:none;stroke:#434a54;stroke-width:10.0357;stroke-linecap:butt;stroke-linejoin:miter;stroke-miterlimit:10;stroke-dasharray:none;stroke-opacity:1"
         id="path296" />
      <path
         d="m 4872.63,5228.6 5.58,-129.03 -86.67,0.32 5.74,129.05 75.35,-0.34"
         style="fill:#f6d660;fill-opacity:1;fill-rule:nonzero;stroke:none"
         id="path298" />
      <path
         d="m 4872.63,5228.6 5.58,-129.03 -86.67,0.32 5.74,129.05 75.35,-0.34"
         style="fill:none;stroke:#434a54;stroke-width:10.0357;stroke-linecap:butt;stroke-linejoin:miter;stroke-miterlimit:10;stroke-dasharray:none;stroke-opacity:1"
         id="path300" />
      <path
         d="m 4766.88,5168.8 2.65,-69.55 -83.1,-0.04 2.34,69.59 h 78.13 -0.02 v 0"
         style="fill:#f6d660;fill-opacity:1;fill-rule:nonzero;stroke:none"
         id="path302" />
      <path
         d="m 4766.88,5168.8 2.65,-69.55 -83.1,-0.04 2.34,69.59 h 78.13 -0.02 z"
         style="fill:none;stroke:#434a54;stroke-width:10.0357;stroke-linecap:butt;stroke-linejoin:miter;stroke-miterlimit:10;stroke-dasharray:none;stroke-opacity:1"
         id="path304" />
      <path
         d="m 4980.58,5168.8 2.65,-69.55 -83.1,-0.04 2.34,69.59 h 78.13 -0.02 v 0"
         style="fill:#f6d660;fill-opacity:1;fill-rule:nonzero;stroke:none"
         id="path306" />
      <path
         d="m 4980.58,5168.8 2.65,-69.55 -83.1,-0.04 2.34,69.59 h 78.13 -0.02 z"
         style="fill:none;stroke:#434a54;stroke-width:10.0357;stroke-linecap:butt;stroke-linejoin:miter;stroke-miterlimit:10;stroke-dasharray:none;stroke-opacity:1"
         id="path308" />
      <path
         d="m 4673.42,5219.2 24.16,-0.06 v -17.45 h 17.67 v 17.86 l 24.77,-0.08 v -17.78 h 17.71 v 17.85 l 24.78,-0.04 -0.04,-40.24 c 0,-6.28 -5.01,-10.37 -10.8,-10.37 h -86.96 c -5.82,0 -11.24,4.71 -11.26,10.51 l -0.06,39.78 h 0.02 l 0.01,0.02"
         style="fill:#f6d660;fill-opacity:1;fill-rule:nonzero;stroke:none"
         id="path310" />
      <path
         d="m 4673.42,5219.2 24.16,-0.06 v -17.45 h 17.67 v 17.86 l 24.77,-0.08 v -17.78 h 17.71 v 17.85 l 24.78,-0.04 -0.04,-40.24 c 0,-6.28 -5.01,-10.37 -10.8,-10.37 h -86.96 c -5.82,0 -11.24,4.71 -11.26,10.51 l -0.06,39.78 h 0.02 z"
         style="fill:none;stroke:#434a54;stroke-width:10.0357;stroke-linecap:butt;stroke-linejoin:miter;stroke-miterlimit:10;stroke-dasharray:none;stroke-opacity:1"
         id="path312" />
      <path
         d="m 4887.11,5219.2 24.16,-0.06 v -17.45 h 17.68 v 17.86 l 24.77,-0.08 v -17.78 h 17.71 v 17.85 l 24.78,-0.04 -0.04,-40.24 c 0,-6.28 -5.01,-10.37 -10.8,-10.37 h -86.96 c -5.83,0 -11.25,4.71 -11.26,10.51 l -0.07,39.78 h 0.02 l 0.01,0.02"
         style="fill:#f6d660;fill-opacity:1;fill-rule:nonzero;stroke:none"
         id="path314" />
      <path
         d="m 4887.11,5219.2 24.16,-0.06 v -17.45 h 17.68 v 17.86 l 24.77,-0.08 v -17.78 h 17.71 v 17.85 l 24.78,-0.04 -0.04,-40.24 c 0,-6.28 -5.01,-10.37 -10.8,-10.37 h -86.96 c -5.83,0 -11.25,4.71 -11.26,10.51 l -0.07,39.78 h 0.02 z"
         style="fill:none;stroke:#434a54;stroke-width:10.0357;stroke-linecap:butt;stroke-linejoin:miter;stroke-miterlimit:10;stroke-dasharray:none;stroke-opacity:1"
         id="path316" />
      <path
         d="m 4826.5,5187.8 c -0.53,12.54 17.67,12.68 17.45,0 v -30.73 h -17.44 v 30.72"
         style="fill:#434a54;fill-opacity:1;fill-rule:nonzero;stroke:none"
         id="path318" />
      <path
         d="m 4719.15,5143.2 c -0.06,12.12 16.85,12.36 16.64,0 v -23.74 h -16.64 v 23.74"
         style="fill:#434a54;fill-opacity:1;fill-rule:nonzero;stroke:none"
         id="path320" />
      <path
         d="m 4933.49,5143.2 c -0.07,12.12 16.85,12.36 16.64,0 v -23.74 h -16.64 v 23.74"
         style="fill:#434a54;fill-opacity:1;fill-rule:nonzero;stroke:none"
         id="path322" />
      <path
         d="m 5833.41,4911.4 c -2.72,110.42 -81.63,136.56 -82.19,136.95 -0.57,0.37 -85.24,-28.15 -84.96,-137.97 l 167.15,1.02"
         style="fill:#f6d660;fill-opacity:1;fill-rule:nonzero;stroke:none"
         id="path324" />
      <path
         d="m 5833.41,4911.4 c -2.72,110.42 -81.63,136.56 -82.19,136.95 -0.57,0.37 -85.24,-28.15 -84.96,-137.97 l 167.15,1.02"
         style="fill:none;stroke:#434a54;stroke-width:10.0357;stroke-linecap:butt;stroke-linejoin:miter;stroke-miterlimit:10;stroke-dasharray:none;stroke-opacity:1"
         id="path326" />
      <path
         d="m 5901.49,5046.2 13.73,-126.89 -83.4,-0.18 c -0.8,104.98 -80.04,122.45 -81.96,122.06 -1.79,0.1 -80.35,-23.21 -82.44,-122.06 h -83.62 l 15.1,127.86 302.59,-0.76 v -0.04 0.01"
         style="fill:#f6d660;fill-opacity:1;fill-rule:nonzero;stroke:none"
         id="path328" />
      <path
         d="m 5901.49,5046.2 13.73,-126.89 -83.4,-0.18 c -0.8,104.98 -80.04,122.45 -81.96,122.06 -1.79,0.1 -80.35,-23.21 -82.44,-122.06 h -83.62 l 15.1,127.86 302.59,-0.76 v -0.04 z"
         style="fill:none;stroke:#434a54;stroke-width:10.0357;stroke-linecap:butt;stroke-linejoin:miter;stroke-miterlimit:10;stroke-dasharray:none;stroke-opacity:1"
         id="path330" />
      <path
         d="m 5920.83,4918.8 h -341.34 c -7.2,0 -13.07,-7.06 -13.07,-15.68 0,-8.61 5.87,-15.63 13.07,-15.63 h 341.34 c 7.2,0 13.08,7.02 13.08,15.63 0,8.62 -5.88,15.68 -13.08,15.68"
         style="fill:#f6d660;fill-opacity:1;fill-rule:nonzero;stroke:none"
         id="path332" />
      <path
         d="m 5920.83,4918.8 h -341.34 c -7.2,0 -13.07,-7.06 -13.07,-15.68 0,-8.61 5.87,-15.63 13.07,-15.63 h 341.34 c 7.2,0 13.08,7.02 13.08,15.63 0,8.62 -5.88,15.68 -13.08,15.68 z"
         style="fill:none;stroke:#434a54;stroke-width:10.0357;stroke-linecap:butt;stroke-linejoin:miter;stroke-miterlimit:10;stroke-dasharray:none;stroke-opacity:1"
         id="path334" />
      <path
         d="m 5796.75,4919.4 c -0.37,66.25 -45.56,85 -45.8,84.97 -0.01,0 -47.18,-19.34 -47.55,-84.97 h 93.35"
         style="fill:#f6d660;fill-opacity:1;fill-rule:nonzero;stroke:none"
         id="path336" />
      <path
         d="m 5796.75,4919.4 c -0.37,66.25 -45.56,85 -45.8,84.97 -0.01,0 -47.18,-19.34 -47.55,-84.97 h 93.35"
         style="fill:none;stroke:#434a54;stroke-width:10.0357;stroke-linecap:butt;stroke-linejoin:miter;stroke-miterlimit:10;stroke-dasharray:none;stroke-opacity:1"
         id="path338" />
      <path
         d="m 5913.58,5099 h -327.22 c -6.89,0 -12.54,-6.37 -12.54,-14.09 0,-7.75 5.65,-14.1 12.54,-14.1 h 327.22 c 6.89,0 12.54,6.32 12.54,14.1 0,7.72 -5.65,14.09 -12.54,14.09"
         style="fill:#f6d660;fill-opacity:1;fill-rule:nonzero;stroke:none"
         id="path340" />
      <path
         d="m 5913.58,5099 h -327.22 c -6.89,0 -12.54,-6.37 -12.54,-14.09 0,-7.75 5.65,-14.1 12.54,-14.1 h 327.22 c 6.89,0 12.54,6.32 12.54,14.1 0,7.72 -5.65,14.09 -12.54,14.09 z"
         style="fill:none;stroke:#434a54;stroke-width:10.0357;stroke-linecap:butt;stroke-linejoin:miter;stroke-miterlimit:10;stroke-dasharray:none;stroke-opacity:1"
         id="path342" />
      <path
         d="m 5906.73,5070.6 h -312.98 c -6.59,0 -11.99,-6.33 -11.99,-14.08 0,-7.76 5.4,-14.09 11.99,-14.09 h 312.98 c 6.59,0 11.99,6.33 11.99,14.09 0,7.75 -5.4,14.08 -11.99,14.08"
         style="fill:#f6d660;fill-opacity:1;fill-rule:nonzero;stroke:none"
         id="path344" />
      <path
         d="m 5906.73,5070.6 h -312.98 c -6.59,0 -11.99,-6.33 -11.99,-14.08 0,-7.76 5.4,-14.09 11.99,-14.09 h 312.98 c 6.59,0 11.99,6.33 11.99,14.09 0,7.75 -5.4,14.08 -11.99,14.08 z"
         style="fill:none;stroke:#434a54;stroke-width:10.0357;stroke-linecap:butt;stroke-linejoin:miter;stroke-miterlimit:10;stroke-dasharray:none;stroke-opacity:1"
         id="path346" />
      <path
         d="m 5805.62,5282.4 -24.72,-0.04 v -17.43 h -18.02 v 17.82 l -25.32,-0.08 v -17.75 h -18.08 v 17.82 h -25.33 l 0.03,-40.24 c 0,-6.31 5.12,-10.4 11.05,-10.4 h 88.86 c 5.97,0 11.48,4.74 11.5,10.53 l 0.05,39.76 h -0.01 l -0.01,0.01"
         style="fill:#f6d660;fill-opacity:1;fill-rule:nonzero;stroke:none"
         id="path348" />
      <path
         d="m 5805.62,5282.4 -24.72,-0.04 v -17.43 h -18.02 v 17.82 l -25.32,-0.08 v -17.75 h -18.08 v 17.82 h -25.33 l 0.03,-40.24 c 0,-6.31 5.12,-10.4 11.05,-10.4 h 88.86 c 5.97,0 11.48,4.74 11.5,10.53 l 0.05,39.76 h -0.01 z"
         style="fill:none;stroke:#434a54;stroke-width:10.0357;stroke-linecap:butt;stroke-linejoin:miter;stroke-miterlimit:10;stroke-dasharray:none;stroke-opacity:1"
         id="path350" />
      <path
         d="m 5712.55,5228.6 -5.57,-129.03 86.67,0.32 -5.74,129.05 -75.36,-0.34"
         style="fill:#f6d660;fill-opacity:1;fill-rule:nonzero;stroke:none"
         id="path352" />
      <path
         d="m 5712.55,5228.6 -5.57,-129.03 86.67,0.32 -5.74,129.05 -75.36,-0.34"
         style="fill:none;stroke:#434a54;stroke-width:10.0357;stroke-linecap:butt;stroke-linejoin:miter;stroke-miterlimit:10;stroke-dasharray:none;stroke-opacity:1"
         id="path354" />
      <path
         d="m 5818.31,5168.8 -2.65,-69.55 83.1,-0.04 -2.35,69.59 h -78.12 0.02 v 0"
         style="fill:#f6d660;fill-opacity:1;fill-rule:nonzero;stroke:none"
         id="path356" />
      <path
         d="m 5818.31,5168.8 -2.65,-69.55 83.1,-0.04 -2.35,69.59 h -78.12 0.02 z"
         style="fill:none;stroke:#434a54;stroke-width:10.0357;stroke-linecap:butt;stroke-linejoin:miter;stroke-miterlimit:10;stroke-dasharray:none;stroke-opacity:1"
         id="path358" />
      <path
         d="m 5604.61,5168.8 -2.65,-69.55 83.1,-0.04 -2.34,69.59 h -78.13 0.02 v 0"
         style="fill:#f6d660;fill-opacity:1;fill-rule:nonzero;stroke:none"
         id="path360" />
      <path
         d="m 5604.61,5168.8 -2.65,-69.55 83.1,-0.04 -2.34,69.59 h -78.13 0.02 z"
         style="fill:none;stroke:#434a54;stroke-width:10.0357;stroke-linecap:butt;stroke-linejoin:miter;stroke-miterlimit:10;stroke-dasharray:none;stroke-opacity:1"
         id="path362" />
      <path
         d="m 5911.77,5219.2 -24.16,-0.06 v -17.45 h -17.68 v 17.86 l -24.76,-0.08 v -17.78 h -17.71 v 17.85 l -24.78,-0.04 0.04,-40.24 c 0,-6.28 5.01,-10.37 10.8,-10.37 h 86.95 c 5.83,0 11.25,4.71 11.26,10.51 l 0.07,39.78 h -0.02 l -0.01,0.02"
         style="fill:#f6d660;fill-opacity:1;fill-rule:nonzero;stroke:none"
         id="path364" />
      <path
         d="m 5911.77,5219.2 -24.16,-0.06 v -17.45 h -17.68 v 17.86 l -24.76,-0.08 v -17.78 h -17.71 v 17.85 l -24.78,-0.04 0.04,-40.24 c 0,-6.28 5.01,-10.37 10.8,-10.37 h 86.95 c 5.83,0 11.25,4.71 11.26,10.51 l 0.07,39.78 h -0.02 z"
         style="fill:none;stroke:#434a54;stroke-width:10.0357;stroke-linecap:butt;stroke-linejoin:miter;stroke-miterlimit:10;stroke-dasharray:none;stroke-opacity:1"
         id="path366" />
      <path
         d="m 5698.07,5219.2 -24.16,-0.06 v -17.45 h -17.67 v 17.86 l -24.77,-0.08 v -17.78 h -17.71 v 17.85 l -24.78,-0.04 0.04,-40.24 c 0,-6.28 5.01,-10.37 10.8,-10.37 h 86.96 c 5.82,0 11.24,4.71 11.26,10.51 l 0.06,39.78 h -0.02 l -0.01,0.02"
         style="fill:#f6d660;fill-opacity:1;fill-rule:nonzero;stroke:none"
         id="path368" />
      <path
         d="m 5698.07,5219.2 -24.16,-0.06 v -17.45 h -17.67 v 17.86 l -24.77,-0.08 v -17.78 h -17.71 v 17.85 l -24.78,-0.04 0.04,-40.24 c 0,-6.28 5.01,-10.37 10.8,-10.37 h 86.96 c 5.82,0 11.24,4.71 11.26,10.51 l 0.06,39.78 h -0.02 z"
         style="fill:none;stroke:#434a54;stroke-width:10.0357;stroke-linecap:butt;stroke-linejoin:miter;stroke-miterlimit:10;stroke-dasharray:none;stroke-opacity:1"
         id="path370" />
      <path
         d="m 5758.68,5187.8 c 0.53,12.54 -17.65,12.68 -17.44,0 v -30.73 h 17.44 v 30.72"
         style="fill:#434a54;fill-opacity:1;fill-rule:nonzero;stroke:none"
         id="path372" />
      <path
         d="m 5866.04,5143.2 c 0.06,12.12 -16.86,12.36 -16.64,0 v -23.74 h 16.64 v 23.74"
         style="fill:#434a54;fill-opacity:1;fill-rule:nonzero;stroke:none"
         id="path374" />
      <path
         d="m 5651.7,5143.2 c 0.06,12.12 -16.86,12.36 -16.64,0 v -23.74 h 16.63 v 23.74"
         style="fill:#434a54;fill-opacity:1;fill-rule:nonzero;stroke:none"
         id="path376" />
      <path
         d="m 5833.41,3985 c -2.72,110.42 -81.63,136.56 -82.19,136.95 -0.57,0.37 -85.24,-28.15 -84.96,-137.97 l 167.15,1.02"
         style="fill:#f6d660;fill-opacity:1;fill-rule:nonzero;stroke:none"
         id="path378" />
      <path
         d="m 5833.41,3985 c -2.72,110.42 -81.63,136.56 -82.19,136.95 -0.57,0.37 -85.24,-28.15 -84.96,-137.97 l 167.15,1.02"
         style="fill:none;stroke:#434a54;stroke-width:10.0357;stroke-linecap:butt;stroke-linejoin:miter;stroke-miterlimit:10;stroke-dasharray:none;stroke-opacity:1"
         id="path380" />
      <path
         d="m 5901.49,4119.8 13.73,-126.89 -83.4,-0.18 c -0.8,104.99 -80.04,122.45 -81.96,122.06 -1.79,0.1 -80.35,-23.21 -82.44,-122.06 h -83.62 l 15.1,127.86 302.59,-0.75 v -0.04 0"
         style="fill:#f6d660;fill-opacity:1;fill-rule:nonzero;stroke:none"
         id="path382" />
      <path
         d="m 5901.49,4119.8 13.73,-126.89 -83.4,-0.18 c -0.8,104.99 -80.04,122.45 -81.96,122.06 -1.79,0.1 -80.35,-23.21 -82.44,-122.06 h -83.62 l 15.1,127.86 302.59,-0.75 v -0.04 z"
         style="fill:none;stroke:#434a54;stroke-width:10.0357;stroke-linecap:butt;stroke-linejoin:miter;stroke-miterlimit:10;stroke-dasharray:none;stroke-opacity:1"
         id="path384" />
      <path
         d="m 5920.83,3992.4 h -341.34 c -7.2,0 -13.07,-7.05 -13.07,-15.68 0,-8.61 5.87,-15.63 13.07,-15.63 h 341.34 c 7.2,0 13.08,7.02 13.08,15.63 0,8.63 -5.88,15.68 -13.08,15.68"
         style="fill:#f6d660;fill-opacity:1;fill-rule:nonzero;stroke:none"
         id="path386" />
      <path
         d="m 5920.83,3992.4 h -341.34 c -7.2,0 -13.07,-7.05 -13.07,-15.68 0,-8.61 5.87,-15.63 13.07,-15.63 h 341.34 c 7.2,0 13.08,7.02 13.08,15.63 0,8.63 -5.88,15.68 -13.08,15.68 z"
         style="fill:none;stroke:#434a54;stroke-width:10.0357;stroke-linecap:butt;stroke-linejoin:miter;stroke-miterlimit:10;stroke-dasharray:none;stroke-opacity:1"
         id="path388" />
      <path
         d="m 5796.75,3993 c -0.37,66.26 -45.56,85.01 -45.8,84.97 -0.01,0 -47.18,-19.33 -47.55,-84.97 h 93.35"
         style="fill:#f6d660;fill-opacity:1;fill-rule:nonzero;stroke:none"
         id="path390" />
      <path
         d="m 5796.75,3993 c -0.37,66.26 -45.56,85.01 -45.8,84.97 -0.01,0 -47.18,-19.33 -47.55,-84.97 h 93.35"
         style="fill:none;stroke:#434a54;stroke-width:10.0357;stroke-linecap:butt;stroke-linejoin:miter;stroke-miterlimit:10;stroke-dasharray:none;stroke-opacity:1"
         id="path392" />
      <path
         d="m 5913.58,4172.6 h -327.22 c -6.89,0 -12.54,-6.36 -12.54,-14.09 0,-7.74 5.65,-14.09 12.54,-14.09 h 327.22 c 6.89,0 12.54,6.31 12.54,14.09 0,7.73 -5.65,14.09 -12.54,14.09"
         style="fill:#f6d660;fill-opacity:1;fill-rule:nonzero;stroke:none"
         id="path394" />
      <path
         d="m 5913.58,4172.6 h -327.22 c -6.89,0 -12.54,-6.36 -12.54,-14.09 0,-7.74 5.65,-14.09 12.54,-14.09 h 327.22 c 6.89,0 12.54,6.31 12.54,14.09 0,7.73 -5.65,14.09 -12.54,14.09 z"
         style="fill:none;stroke:#434a54;stroke-width:10.0357;stroke-linecap:butt;stroke-linejoin:miter;stroke-miterlimit:10;stroke-dasharray:none;stroke-opacity:1"
         id="path396" />
      <path
         d="m 5906.73,4144.2 h -312.98 c -6.59,0 -11.99,-6.33 -11.99,-14.07 0,-7.76 5.4,-14.1 11.99,-14.1 h 312.98 c 6.59,0 11.99,6.34 11.99,14.1 0,7.74 -5.4,14.07 -11.99,14.07"
         style="fill:#f6d660;fill-opacity:1;fill-rule:nonzero;stroke:none"
         id="path398" />
      <path
         d="m 5906.73,4144.2 h -312.98 c -6.59,0 -11.99,-6.33 -11.99,-14.07 0,-7.76 5.4,-14.1 11.99,-14.1 h 312.98 c 6.59,0 11.99,6.34 11.99,14.1 0,7.74 -5.4,14.07 -11.99,14.07 z"
         style="fill:none;stroke:#434a54;stroke-width:10.0357;stroke-linecap:butt;stroke-linejoin:miter;stroke-miterlimit:10;stroke-dasharray:none;stroke-opacity:1"
         id="path400" />
      <path
         d="m 5805.62,4356 -24.72,-0.04 v -17.42 h -18.02 v 17.81 l -25.32,-0.08 v -17.74 h -18.08 v 17.81 h -25.33 l 0.03,-40.23 c 0,-6.32 5.12,-10.41 11.05,-10.41 h 88.86 c 5.97,0 11.48,4.75 11.5,10.53 l 0.05,39.76 h -0.01 l -0.01,0.01"
         style="fill:#f6d660;fill-opacity:1;fill-rule:nonzero;stroke:none"
         id="path402" />
      <path
         d="m 5805.62,4356 -24.72,-0.04 v -17.42 h -18.02 v 17.81 l -25.32,-0.08 v -17.74 h -18.08 v 17.81 h -25.33 l 0.03,-40.23 c 0,-6.32 5.12,-10.41 11.05,-10.41 h 88.86 c 5.97,0 11.48,4.75 11.5,10.53 l 0.05,39.76 h -0.01 z"
         style="fill:none;stroke:#434a54;stroke-width:10.0357;stroke-linecap:butt;stroke-linejoin:miter;stroke-miterlimit:10;stroke-dasharray:none;stroke-opacity:1"
         id="path404" />
      <path
         d="m 5712.55,4302.2 -5.57,-129.02 86.67,0.31 -5.74,129.05 -75.36,-0.34"
         style="fill:#f6d660;fill-opacity:1;fill-rule:nonzero;stroke:none"
         id="path406" />
      <path
         d="m 5712.55,4302.2 -5.57,-129.02 86.67,0.31 -5.74,129.05 -75.36,-0.34"
         style="fill:none;stroke:#434a54;stroke-width:10.0357;stroke-linecap:butt;stroke-linejoin:miter;stroke-miterlimit:10;stroke-dasharray:none;stroke-opacity:1"
         id="path408" />
      <path
         d="m 5818.31,4242.4 -2.65,-69.55 83.1,-0.04 -2.35,69.59 h -78.12 0.02 v 0"
         style="fill:#f6d660;fill-opacity:1;fill-rule:nonzero;stroke:none"
         id="path410" />
      <path
         d="m 5818.31,4242.4 -2.65,-69.55 83.1,-0.04 -2.35,69.59 h -78.12 0.02 z"
         style="fill:none;stroke:#434a54;stroke-width:10.0357;stroke-linecap:butt;stroke-linejoin:miter;stroke-miterlimit:10;stroke-dasharray:none;stroke-opacity:1"
         id="path412" />
      <path
         d="m 5604.61,4242.4 -2.65,-69.55 83.1,-0.04 -2.34,69.59 h -78.13 0.02 v 0"
         style="fill:#f6d660;fill-opacity:1;fill-rule:nonzero;stroke:none"
         id="path414" />
      <path
         d="m 5604.61,4242.4 -2.65,-69.55 83.1,-0.04 -2.34,69.59 h -78.13 0.02 z"
         style="fill:none;stroke:#434a54;stroke-width:10.0357;stroke-linecap:butt;stroke-linejoin:miter;stroke-miterlimit:10;stroke-dasharray:none;stroke-opacity:1"
         id="path416" />
      <path
         d="m 5911.77,4292.8 -24.16,-0.06 v -17.44 h -17.68 v 17.85 l -24.76,-0.08 v -17.78 h -17.71 v 17.85 l -24.78,-0.04 0.04,-40.23 c 0,-6.28 5.01,-10.37 10.8,-10.37 h 86.95 c 5.83,0 11.25,4.7 11.26,10.51 l 0.07,39.77 h -0.02 l -0.01,0.02"
         style="fill:#f6d660;fill-opacity:1;fill-rule:nonzero;stroke:none"
         id="path418" />
      <path
         d="m 5911.77,4292.8 -24.16,-0.06 v -17.44 h -17.68 v 17.85 l -24.76,-0.08 v -17.78 h -17.71 v 17.85 l -24.78,-0.04 0.04,-40.23 c 0,-6.28 5.01,-10.37 10.8,-10.37 h 86.95 c 5.83,0 11.25,4.7 11.26,10.51 l 0.07,39.77 h -0.02 z"
         style="fill:none;stroke:#434a54;stroke-width:10.0357;stroke-linecap:butt;stroke-linejoin:miter;stroke-miterlimit:10;stroke-dasharray:none;stroke-opacity:1"
         id="path420" />
      <path
         d="m 5698.07,4292.8 -24.16,-0.06 v -17.44 h -17.67 v 17.85 l -24.77,-0.08 v -17.78 h -17.71 v 17.85 l -24.78,-0.04 0.04,-40.23 c 0,-6.28 5.01,-10.37 10.8,-10.37 h 86.96 c 5.82,0 11.24,4.7 11.26,10.51 l 0.06,39.77 h -0.02 l -0.01,0.02"
         style="fill:#f6d660;fill-opacity:1;fill-rule:nonzero;stroke:none"
         id="path422" />
      <path
         d="m 5698.07,4292.8 -24.16,-0.06 v -17.44 h -17.67 v 17.85 l -24.77,-0.08 v -17.78 h -17.71 v 17.85 l -24.78,-0.04 0.04,-40.23 c 0,-6.28 5.01,-10.37 10.8,-10.37 h 86.96 c 5.82,0 11.24,4.7 11.26,10.51 l 0.06,39.77 h -0.02 z"
         style="fill:none;stroke:#434a54;stroke-width:10.0357;stroke-linecap:butt;stroke-linejoin:miter;stroke-miterlimit:10;stroke-dasharray:none;stroke-opacity:1"
         id="path424" />
      <path
         d="m 5758.68,4261.4 c 0.53,12.55 -17.65,12.69 -17.44,0 v -30.72 h 17.44 v 30.72"
         style="fill:#434a54;fill-opacity:1;fill-rule:nonzero;stroke:none"
         id="path426" />
      <path
         d="m 5866.04,4216.8 c 0.06,12.12 -16.86,12.37 -16.64,0 v -23.74 h 16.64 v 23.74"
         style="fill:#434a54;fill-opacity:1;fill-rule:nonzero;stroke:none"
         id="path428" />
      <path
         d="m 5651.7,4216.8 c 0.06,12.12 -16.86,12.37 -16.64,0 v -23.74 h 16.63 v 23.74"
         style="fill:#434a54;fill-opacity:1;fill-rule:nonzero;stroke:none"
         id="path430" />
      <path
         d="m 5469.61,3020.73 c 77,79.71 40.08,153.73 39.96,154.4 -0.14,0.66 -80.18,40.22 -158.46,-37.36 l 118.5,-117.04"
         style="fill:#f6d660;fill-opacity:1;fill-rule:nonzero;stroke:none"
         id="path432" />
      <path
         d="m 5469.61,3020.73 c 77,79.71 40.08,153.73 39.96,154.4 -0.14,0.66 -80.18,40.22 -158.46,-37.36 l 118.5,-117.04"
         style="fill:none;stroke:#434a54;stroke-width:10.0357;stroke-linecap:butt;stroke-linejoin:miter;stroke-miterlimit:10;stroke-dasharray:none;stroke-opacity:1"
         id="path434" />
      <path
         d="m 5613.92,3067.74 -81.01,-99.09 -58.9,58.64 c 74.47,74.54 31.11,142.67 29.49,143.75 -1.2,1.34 -73.21,40.26 -145.33,-27.92 l -58.92,58.91 102.02,79.46 212.67,-213.72 -0.03,-0.03 h 0.01"
         style="fill:#f6d660;fill-opacity:1;fill-rule:nonzero;stroke:none"
         id="path436" />
      <path
         d="m 5613.92,3067.74 -81.01,-99.09 -58.9,58.64 c 74.47,74.54 31.11,142.67 29.49,143.75 -1.2,1.34 -73.21,40.26 -145.33,-27.92 l -58.92,58.91 102.02,79.46 212.67,-213.72 -0.03,-0.03 z"
         style="fill:none;stroke:#434a54;stroke-width:10.0357;stroke-linecap:butt;stroke-linejoin:miter;stroke-miterlimit:10;stroke-dasharray:none;stroke-opacity:1"
         id="path438" />
      <path
         d="m 5536.49,2964.35 -240.5,240.49 c -5.08,5.07 -14.26,4.24 -20.42,-1.83 -6.16,-6.07 -7.03,-15.16 -1.96,-20.23 l 240.51,-240.49 c 5.07,-5.07 14.23,-4.27 20.38,1.8 6.16,6.07 7.07,15.19 1.99,20.26"
         style="fill:#f6d660;fill-opacity:1;fill-rule:nonzero;stroke:none"
         id="path440" />
      <path
         d="m 5536.49,2964.35 -240.5,240.49 c -5.08,5.07 -14.26,4.24 -20.42,-1.83 -6.16,-6.07 -7.03,-15.16 -1.96,-20.23 l 240.51,-240.49 c 5.07,-5.07 14.23,-4.27 20.38,1.8 6.16,6.07 7.07,15.19 1.99,20.26 z"
         style="fill:none;stroke:#434a54;stroke-width:10.0357;stroke-linecap:butt;stroke-linejoin:miter;stroke-miterlimit:10;stroke-dasharray:none;stroke-opacity:1"
         id="path442" />
      <path
         d="m 5449.5,3052.19 c 47.08,46.95 28.64,92 28.45,92.14 -0.01,0.01 -47.06,19.62 -94.23,-26.37 l 65.78,-65.77"
         style="fill:#f6d660;fill-opacity:1;fill-rule:nonzero;stroke:none"
         id="path444" />
      <path
         d="m 5449.5,3052.19 c 47.08,46.95 28.64,92 28.45,92.14 -0.01,0.01 -47.06,19.62 -94.23,-26.37 l 65.78,-65.77"
         style="fill:none;stroke:#434a54;stroke-width:10.0357;stroke-linecap:butt;stroke-linejoin:miter;stroke-miterlimit:10;stroke-dasharray:none;stroke-opacity:1"
         id="path446" />
      <path
         d="m 5660.17,3096.43 -230.56,230.54 c -4.86,4.86 -13.39,4.35 -18.91,-1.09 -5.54,-5.46 -6.1,-13.91 -1.24,-18.77 l 230.56,-230.54 c 4.86,-4.86 13.35,-4.39 18.92,1.09 5.51,5.44 6.08,13.91 1.23,18.77"
         style="fill:#f6d660;fill-opacity:1;fill-rule:nonzero;stroke:none"
         id="path448" />
      <path
         d="m 5660.17,3096.43 -230.56,230.54 c -4.86,4.86 -13.39,4.35 -18.91,-1.09 -5.54,-5.46 -6.1,-13.91 -1.24,-18.77 l 230.56,-230.54 c 4.86,-4.86 13.35,-4.39 18.92,1.09 5.51,5.44 6.08,13.91 1.23,18.77 z"
         style="fill:none;stroke:#434a54;stroke-width:10.0357;stroke-linecap:butt;stroke-linejoin:miter;stroke-miterlimit:10;stroke-dasharray:none;stroke-opacity:1"
         id="path450" />
      <path
         d="m 5635.05,3081.24 -220.53,220.52 c -4.65,4.64 -12.98,3.98 -18.51,-1.47 -5.55,-5.47 -6.26,-13.74 -1.63,-18.38 l 220.54,-220.52 c 4.64,-4.64 12.97,-3.98 18.52,1.48 5.53,5.46 6.25,13.73 1.61,18.37"
         style="fill:#f6d660;fill-opacity:1;fill-rule:nonzero;stroke:none"
         id="path452" />
      <path
         d="m 5635.05,3081.24 -220.53,220.52 c -4.65,4.64 -12.98,3.98 -18.51,-1.47 -5.55,-5.47 -6.26,-13.74 -1.63,-18.38 l 220.54,-220.52 c 4.64,-4.64 12.97,-3.98 18.52,1.48 5.53,5.46 6.25,13.73 1.61,18.37 z"
         style="fill:none;stroke:#434a54;stroke-width:10.0357;stroke-linecap:butt;stroke-linejoin:miter;stroke-miterlimit:10;stroke-dasharray:none;stroke-opacity:1"
         id="path454" />
      <path
         d="m 5715.17,3301.72 -17.45,17.38 -12.45,-12.28 -12.7,12.71 12.73,12.55 -17.89,17.78 -12.69,-12.51 -12.74,12.74 12.73,12.56 -17.84,17.85 -28.73,-28.38 c -4.51,-4.45 -3.83,-10.94 0.35,-15.12 l 62.6,-62.6 c 4.21,-4.21 11.48,-4.75 15.63,-0.68 l 28.46,27.97 -0.01,0.01 v 0.02"
         style="fill:#f6d660;fill-opacity:1;fill-rule:nonzero;stroke:none"
         id="path456" />
      <path
         d="m 5715.17,3301.72 -17.45,17.38 -12.45,-12.28 -12.7,12.71 12.73,12.55 -17.89,17.78 -12.69,-12.51 -12.74,12.74 12.73,12.56 -17.84,17.85 -28.73,-28.38 c -4.51,-4.45 -3.83,-10.94 0.35,-15.12 l 62.6,-62.6 c 4.21,-4.21 11.48,-4.75 15.63,-0.68 l 28.46,27.97 -0.01,0.01 z"
         style="fill:none;stroke:#434a54;stroke-width:10.0357;stroke-linecap:butt;stroke-linejoin:miter;stroke-miterlimit:10;stroke-dasharray:none;stroke-opacity:1"
         id="path458" />
      <path
         d="m 5611.14,3329.38 -96.14,-86.98 61.3,-60.85 88.18,94.97 -53.34,52.86"
         style="fill:#f6d660;fill-opacity:1;fill-rule:nonzero;stroke:none"
         id="path460" />
      <path
         d="m 5611.14,3329.38 -96.14,-86.98 61.3,-60.85 88.18,94.97 -53.34,52.86"
         style="fill:none;stroke:#434a54;stroke-width:10.0357;stroke-linecap:butt;stroke-linejoin:miter;stroke-miterlimit:10;stroke-dasharray:none;stroke-opacity:1"
         id="path462" />
      <path
         d="m 5642.92,3212.74 -51.57,-47.14 58.53,-58.58 48.07,50.68 -55.04,55.05 0.01,-0.02 v 0.01"
         style="fill:#f6d660;fill-opacity:1;fill-rule:nonzero;stroke:none"
         id="path464" />
      <path
         d="m 5642.92,3212.74 -51.57,-47.14 58.53,-58.58 48.07,50.68 -55.04,55.05 0.01,-0.02 z"
         style="fill:none;stroke:#434a54;stroke-width:10.0357;stroke-linecap:butt;stroke-linejoin:miter;stroke-miterlimit:10;stroke-dasharray:none;stroke-opacity:1"
         id="path466" />
      <path
         d="m 5492.35,3363.3 -51.57,-47.14 58.52,-58.58 48.08,50.68 -55.05,55.05 0.02,-0.02 v 0.01"
         style="fill:#f6d660;fill-opacity:1;fill-rule:nonzero;stroke:none"
         id="path468" />
      <path
         d="m 5492.35,3363.3 -51.57,-47.14 58.52,-58.58 48.08,50.68 -55.05,55.05 0.02,-0.02 z"
         style="fill:none;stroke:#434a54;stroke-width:10.0357;stroke-linecap:butt;stroke-linejoin:miter;stroke-miterlimit:10;stroke-dasharray:none;stroke-opacity:1"
         id="path470" />
      <path
         d="m 5744.79,3182.4 -17.06,16.98 -12.47,-12.3 -12.45,12.46 12.76,12.58 -17.51,17.39 -12.71,-12.53 -12.48,12.48 12.76,12.58 -17.49,17.43 -28.73,-28.38 c -4.48,-4.43 -3.88,-10.84 0.2,-14.92 l 61.27,-61.26 c 4.11,-4.11 11.29,-4.61 15.45,-0.53 l 28.47,27.98 -0.01,0.01 v 0.03"
         style="fill:#f6d660;fill-opacity:1;fill-rule:nonzero;stroke:none"
         id="path472" />
      <path
         d="m 5744.79,3182.4 -17.06,16.98 -12.47,-12.3 -12.45,12.46 12.76,12.58 -17.51,17.39 -12.71,-12.53 -12.48,12.48 12.76,12.58 -17.49,17.43 -28.73,-28.38 c -4.48,-4.43 -3.88,-10.84 0.2,-14.92 l 61.27,-61.26 c 4.11,-4.11 11.29,-4.61 15.45,-0.53 l 28.47,27.98 -0.01,0.01 z"
         style="fill:none;stroke:#434a54;stroke-width:10.0357;stroke-linecap:butt;stroke-linejoin:miter;stroke-miterlimit:10;stroke-dasharray:none;stroke-opacity:1"
         id="path474" />
      <path
         d="m 5594.22,3332.96 -17.06,16.98 -12.47,-12.29 -12.45,12.45 12.76,12.58 -17.51,17.39 -12.71,-12.53 -12.48,12.48 12.76,12.58 -17.49,17.43 -28.73,-28.38 c -4.48,-4.42 -3.88,-10.84 0.2,-14.92 l 61.27,-61.26 c 4.1,-4.11 11.29,-4.61 15.45,-0.53 l 28.47,27.98 -0.02,0.02 0.01,0.02"
         style="fill:#f6d660;fill-opacity:1;fill-rule:nonzero;stroke:none"
         id="path476" />
      <path
         d="m 5594.22,3332.96 -17.06,16.98 -12.47,-12.29 -12.45,12.45 12.76,12.58 -17.51,17.39 -12.71,-12.53 -12.48,12.48 12.76,12.58 -17.49,17.43 -28.73,-28.38 c -4.48,-4.42 -3.88,-10.84 0.2,-14.92 l 61.27,-61.26 c 4.1,-4.11 11.29,-4.61 15.45,-0.53 l 28.47,27.98 -0.02,0.02 z"
         style="fill:none;stroke:#434a54;stroke-width:10.0357;stroke-linecap:butt;stroke-linejoin:miter;stroke-miterlimit:10;stroke-dasharray:none;stroke-opacity:1"
         id="path478" />
      <path
         d="m 5614.49,3268.13 c 9.34,8.46 -3.38,21.38 -12.29,12.29 l -21.96,-21.65 12.29,-12.29 21.95,21.65"
         style="fill:#434a54;fill-opacity:1;fill-rule:nonzero;stroke:none"
         id="path480" />
      <path
         d="m 5658.26,3161.06 c 8.7,8.5 -3.04,20.59 -11.73,11.73 l -16.96,-16.73 11.72,-11.72 16.97,16.73"
         style="fill:#434a54;fill-opacity:1;fill-rule:nonzero;stroke:none"
         id="path482" />
      <path
         d="m 5507.24,3312.08 c 8.7,8.49 -3.05,20.59 -11.73,11.73 l -16.97,-16.73 11.72,-11.73 16.97,16.73"
         style="fill:#434a54;fill-opacity:1;fill-rule:nonzero;stroke:none"
         id="path484" />
      <path
         d="m 4685.95,3951.88 v -0.1 c 0,-44.24 17.11,-84.54 44.56,-113.79 27.49,-29.33 65.37,-47.55 106.79,-47.55 41.65,0 79.44,18.09 106.82,47.31 27.35,29.17 44.36,69.44 44.36,113.86 v 215.36 l -301.99,0.24 -0.55,-215.32"
         style="fill:#4758a9;fill-opacity:1;fill-rule:nonzero;stroke:none"
         id="path486" />
      <path
         d="m 4755.21,4115.02 c 16.53,0 29.93,-13.31 29.93,-29.72 0,-16.41 -13.4,-29.72 -29.93,-29.72 -16.54,0 -29.94,13.31 -29.94,29.72 0,16.41 13.4,29.72 29.94,29.72"
         style="fill:#f5f7fa;fill-opacity:1;fill-rule:nonzero;stroke:none"
         id="path488" />
      <path
         d="m 4922.75,4114.88 c 16.53,0 29.94,-13.31 29.94,-29.72 0,-16.41 -13.41,-29.72 -29.94,-29.72 -16.53,0 -29.93,13.31 -29.93,29.72 0,16.41 13.4,29.72 29.93,29.72"
         style="fill:#f5f7fa;fill-opacity:1;fill-rule:nonzero;stroke:none"
         id="path490" />
      <path
         d="m 4838.82,4035.02 c 16.53,0 29.93,-13.31 29.93,-29.72 0,-16.41 -13.4,-29.72 -29.93,-29.72 -16.53,0 -29.93,13.31 -29.93,29.72 0,16.41 13.4,29.72 29.93,29.72"
         style="fill:#f5f7fa;fill-opacity:1;fill-rule:nonzero;stroke:none"
         id="path492" />
      <path
         d="m 4755.21,3951.4 c 16.53,0 29.93,-13.31 29.93,-29.72 0,-16.41 -13.4,-29.72 -29.93,-29.72 -16.54,0 -29.94,13.31 -29.94,29.72 0,16.41 13.4,29.72 29.94,29.72"
         style="fill:#f5f7fa;fill-opacity:1;fill-rule:nonzero;stroke:none"
         id="path494" />
      <path
         d="m 4922.57,3951.62 c 16.53,0 29.93,-13.31 29.93,-29.72 0,-16.41 -13.4,-29.72 -29.93,-29.72 -16.53,0 -29.93,13.31 -29.93,29.72 0,16.41 13.4,29.72 29.93,29.72"
         style="fill:#f5f7fa;fill-opacity:1;fill-rule:nonzero;stroke:none"
         id="path496" />
      <path
         d="m 4685.95,4472.2 v -0.1 c 0,-44.24 17.11,-84.54 44.56,-113.79 27.49,-29.33 65.37,-47.55 106.79,-47.55 41.65,0 79.44,18.09 106.82,47.31 27.35,29.17 44.36,69.44 44.36,113.86 v 215.36 l -301.99,0.24 -0.55,-215.32"
         style="fill:#4758a9;fill-opacity:1;fill-rule:nonzero;stroke:none"
         id="path498" />
      <path
         d="m 4755.21,4635.34 c 16.53,0 29.93,-13.31 29.93,-29.72 0,-16.41 -13.4,-29.72 -29.93,-29.72 -16.54,0 -29.94,13.31 -29.94,29.72 0,16.41 13.4,29.72 29.94,29.72"
         style="fill:#f5f7fa;fill-opacity:1;fill-rule:nonzero;stroke:none"
         id="path500" />
      <path
         d="m 4922.75,4635.2 c 16.53,0 29.94,-13.31 29.94,-29.72 0,-16.41 -13.41,-29.72 -29.94,-29.72 -16.53,0 -29.93,13.31 -29.93,29.72 0,16.41 13.4,29.72 29.93,29.72"
         style="fill:#f5f7fa;fill-opacity:1;fill-rule:nonzero;stroke:none"
         id="path502" />
      <path
         d="m 4838.82,4555.34 c 16.53,0 29.93,-13.31 29.93,-29.72 0,-16.41 -13.4,-29.72 -29.93,-29.72 -16.53,0 -29.93,13.31 -29.93,29.72 0,16.41 13.4,29.72 29.93,29.72"
         style="fill:#f5f7fa;fill-opacity:1;fill-rule:nonzero;stroke:none"
         id="path504" />
      <path
         d="m 4755.21,4471.72 c 16.53,0 29.93,-13.31 29.93,-29.72 0,-16.41 -13.4,-29.72 -29.93,-29.72 -16.54,0 -29.94,13.31 -29.94,29.72 0,16.41 13.4,29.72 29.94,29.72"
         style="fill:#f5f7fa;fill-opacity:1;fill-rule:nonzero;stroke:none"
         id="path506" />
      <path
         d="m 4922.57,4471.94 c 16.53,0 29.93,-13.31 29.93,-29.72 0,-16.41 -13.4,-29.72 -29.93,-29.72 -16.53,0 -29.93,13.31 -29.93,29.72 0,16.41 13.4,29.72 29.93,29.72"
         style="fill:#f5f7fa;fill-opacity:1;fill-rule:nonzero;stroke:none"
         id="path508" />
      <path
         d="m 4267,3951.88 v -0.1 c 0,-44.24 17.11,-84.54 44.55,-113.79 27.5,-29.33 65.37,-47.55 106.8,-47.55 41.64,0 79.44,18.09 106.82,47.31 27.35,29.17 44.36,69.44 44.36,113.86 v 215.36 l -301.99,0.24 -0.55,-215.32"
         style="fill:#4758a9;fill-opacity:1;fill-rule:nonzero;stroke:none"
         id="path510" />
      <path
         d="m 4336.25,4115.02 c 16.53,0 29.94,-13.31 29.94,-29.72 0,-16.41 -13.41,-29.72 -29.94,-29.72 -16.53,0 -29.93,13.31 -29.93,29.72 0,16.41 13.4,29.72 29.93,29.72"
         style="fill:#f5f7fa;fill-opacity:1;fill-rule:nonzero;stroke:none"
         id="path512" />
      <path
         d="m 4503.8,4114.88 c 16.53,0 29.94,-13.31 29.94,-29.72 0,-16.41 -13.41,-29.72 -29.94,-29.72 -16.53,0 -29.93,13.31 -29.93,29.72 0,16.41 13.4,29.72 29.93,29.72"
         style="fill:#f5f7fa;fill-opacity:1;fill-rule:nonzero;stroke:none"
         id="path514" />
      <path
         d="m 4419.87,4035.02 c 16.53,0 29.93,-13.31 29.93,-29.72 0,-16.41 -13.4,-29.72 -29.93,-29.72 -16.54,0 -29.94,13.31 -29.94,29.72 0,16.41 13.4,29.72 29.94,29.72"
         style="fill:#f5f7fa;fill-opacity:1;fill-rule:nonzero;stroke:none"
         id="path516" />
      <path
         d="m 4336.25,3951.4 c 16.53,0 29.94,-13.31 29.94,-29.72 0,-16.41 -13.41,-29.72 -29.94,-29.72 -16.53,0 -29.93,13.31 -29.93,29.72 0,16.41 13.4,29.72 29.93,29.72"
         style="fill:#f5f7fa;fill-opacity:1;fill-rule:nonzero;stroke:none"
         id="path518" />
      <path
         d="m 4503.62,3951.62 c 16.53,0 29.93,-13.31 29.93,-29.72 0,-16.41 -13.4,-29.72 -29.93,-29.72 -16.53,0 -29.93,13.31 -29.93,29.72 0,16.41 13.4,29.72 29.93,29.72"
         style="fill:#f5f7fa;fill-opacity:1;fill-rule:nonzero;stroke:none"
         id="path520" />
      <path
         d="m 5103.82,3951.88 v -0.1 c 0,-44.24 17.1,-84.54 44.55,-113.79 27.5,-29.33 65.37,-47.55 106.8,-47.55 41.64,0 79.44,18.09 106.81,47.31 27.36,29.17 44.36,69.44 44.36,113.86 v 215.36 l -301.98,0.24 -0.55,-215.32"
         style="fill:#4758a9;fill-opacity:1;fill-rule:nonzero;stroke:none"
         id="path522" />
      <path
         d="m 5173.07,4115.02 c 16.53,0 29.93,-13.31 29.93,-29.72 0,-16.41 -13.4,-29.72 -29.93,-29.72 -16.53,0 -29.94,13.31 -29.94,29.72 0,16.41 13.41,29.72 29.94,29.72"
         style="fill:#f5f7fa;fill-opacity:1;fill-rule:nonzero;stroke:none"
         id="path524" />
      <path
         d="m 5340.62,4114.88 c 16.53,0 29.93,-13.31 29.93,-29.72 0,-16.41 -13.4,-29.72 -29.93,-29.72 -16.53,0 -29.94,13.31 -29.94,29.72 0,16.41 13.41,29.72 29.94,29.72"
         style="fill:#f5f7fa;fill-opacity:1;fill-rule:nonzero;stroke:none"
         id="path526" />
      <path
         d="m 5256.68,4035.02 c 16.53,0 29.94,-13.31 29.94,-29.72 0,-16.41 -13.41,-29.72 -29.94,-29.72 -16.53,0 -29.93,13.31 -29.93,29.72 0,16.41 13.4,29.72 29.93,29.72"
         style="fill:#f5f7fa;fill-opacity:1;fill-rule:nonzero;stroke:none"
         id="path528" />
      <path
         d="m 5173.07,3951.4 c 16.53,0 29.93,-13.31 29.93,-29.72 0,-16.41 -13.4,-29.72 -29.93,-29.72 -16.53,0 -29.94,13.31 -29.94,29.72 0,16.41 13.41,29.72 29.94,29.72"
         style="fill:#f5f7fa;fill-opacity:1;fill-rule:nonzero;stroke:none"
         id="path530" />
      <path
         d="m 5340.43,3951.62 c 16.54,0 29.94,-13.31 29.94,-29.72 0,-16.41 -13.4,-29.72 -29.94,-29.72 -16.52,0 -29.93,13.31 -29.93,29.72 0,16.41 13.41,29.72 29.93,29.72"
         style="fill:#f5f7fa;fill-opacity:1;fill-rule:nonzero;stroke:none"
         id="path532" />
      <path
         d="m 4685.95,3436.2 v -0.1 c 0,-44.24 17.11,-84.54 44.56,-113.79 27.49,-29.33 65.37,-47.55 106.79,-47.55 41.65,0 79.44,18.09 106.82,47.31 27.35,29.17 44.36,69.44 44.36,113.86 v 215.36 l -301.99,0.24 -0.55,-215.32"
         style="fill:#4758a9;fill-opacity:1;fill-rule:nonzero;stroke:none"
         id="path534" />
      <path
         d="m 4755.21,3599.34 c 16.53,0 29.93,-13.31 29.93,-29.72 0,-16.41 -13.4,-29.72 -29.93,-29.72 -16.54,0 -29.94,13.31 -29.94,29.72 0,16.41 13.4,29.72 29.94,29.72"
         style="fill:#f5f7fa;fill-opacity:1;fill-rule:nonzero;stroke:none"
         id="path536" />
      <path
         d="m 4922.75,3599.2 c 16.53,0 29.94,-13.31 29.94,-29.72 0,-16.41 -13.41,-29.72 -29.94,-29.72 -16.53,0 -29.93,13.31 -29.93,29.72 0,16.41 13.4,29.72 29.93,29.72"
         style="fill:#f5f7fa;fill-opacity:1;fill-rule:nonzero;stroke:none"
         id="path538" />
      <path
         d="m 4838.82,3519.34 c 16.53,0 29.93,-13.31 29.93,-29.72 0,-16.41 -13.4,-29.72 -29.93,-29.72 -16.53,0 -29.93,13.31 -29.93,29.72 0,16.41 13.4,29.72 29.93,29.72"
         style="fill:#f5f7fa;fill-opacity:1;fill-rule:nonzero;stroke:none"
         id="path540" />
      <path
         d="m 4755.21,3435.72 c 16.53,0 29.93,-13.31 29.93,-29.72 0,-16.41 -13.4,-29.72 -29.93,-29.72 -16.54,0 -29.94,13.31 -29.94,29.72 0,16.41 13.4,29.72 29.94,29.72"
         style="fill:#f5f7fa;fill-opacity:1;fill-rule:nonzero;stroke:none"
         id="path542" />
      <path
         d="m 4922.57,3435.94 c 16.53,0 29.93,-13.31 29.93,-29.72 0,-16.41 -13.4,-29.72 -29.93,-29.72 -16.53,0 -29.93,13.31 -29.93,29.72 0,16.41 13.4,29.72 29.93,29.72"
         style="fill:#f5f7fa;fill-opacity:1;fill-rule:nonzero;stroke:none"
         id="path544" />
    </g>
  </g>
</svg>
