<?xml version="1.0" encoding="UTF-8" standalone="no"?>
<!-- Created with Inkscape (http://www.inkscape.org/) -->

<svg
   version="1.1"
   id="svg2"
   width="1600"
   height="1066.6667"
   viewBox="0 0 1600 1066.6667"
   sodipodi:docname="singapore_flag.eps"
   xmlns:inkscape="http://www.inkscape.org/namespaces/inkscape"
   xmlns:sodipodi="http://sodipodi.sourceforge.net/DTD/sodipodi-0.dtd"
   xmlns="http://www.w3.org/2000/svg"
   xmlns:svg="http://www.w3.org/2000/svg">
  <defs
     id="defs6" />
  <sodipodi:namedview
     id="namedview4"
     pagecolor="#ffffff"
     bordercolor="#000000"
     borderopacity="0.25"
     inkscape:showpageshadow="2"
     inkscape:pageopacity="0.0"
     inkscape:pagecheckerboard="0"
     inkscape:deskcolor="#d1d1d1" />
  <g
     id="g8"
     inkscape:groupmode="layer"
     inkscape:label="ink_ext_XXXXXX"
     transform="matrix(1.3333333,0,0,-1.3333333,0,1066.6667)">
    <g
       id="g10"
       transform="scale(0.1)">
      <path
         d="M 0,8000 H 12000 V 4000 H 0 v 4000"
         style="fill:#ed5565;fill-opacity:1;fill-rule:nonzero;stroke:none"
         id="path12" />
      <path
         d="M 0,4000 H 12000 V 0 H 0 v 4000"
         style="fill:#f5f7fa;fill-opacity:1;fill-rule:nonzero;stroke:none"
         id="path14" />
      <path
         d="m 1757.92,5999.15 c 0,0.28 0,0.57 0,0.85 -0.22,765.12 608.43,1389.13 1371.29,1420.56 -156.26,54.1 -324.12,83.61 -498.95,83.61 -836.66,0 -1514.91,-673.44 -1514.91,-1504.17 0,-830.73 678.25,-1504.17 1514.91,-1504.17 174.82,0 342.69,29.5 498.94,83.6 -762.47,31.42 -1371.05,654.89 -1371.28,1419.72"
         style="fill:#f5f7fa;fill-opacity:1;fill-rule:nonzero;stroke:none"
         id="path16" />
      <path
         d="m 2817.75,5963.71 -205.8,156.75 -205.74,-156.82 79.21,252.76 -206.45,155.81 254.75,-0.54 78.15,253.12 78.23,-253.09 254.75,0.63 -206.39,-155.89 79.29,-252.73"
         style="fill:#f5f7fa;fill-opacity:1;fill-rule:nonzero;stroke:none"
         id="path18" />
      <path
         d="m 4432.5,5963.71 -205.79,156.75 -205.74,-156.82 79.21,252.76 -206.45,155.81 254.74,-0.54 78.15,253.12 78.24,-253.09 254.74,0.63 -206.39,-155.89 79.29,-252.73"
         style="fill:#f5f7fa;fill-opacity:1;fill-rule:nonzero;stroke:none"
         id="path20" />
      <path
         d="m 3625.95,6558.74 -205.8,156.75 -205.74,-156.82 79.21,252.76 -206.45,155.81 254.75,-0.54 78.15,253.12 78.24,-253.09 254.74,0.63 -206.39,-155.89 79.29,-252.73"
         style="fill:#f5f7fa;fill-opacity:1;fill-rule:nonzero;stroke:none"
         id="path22" />
      <path
         d="m 3119.89,5011.63 -205.79,156.75 -205.75,-156.82 79.21,252.76 -206.45,155.81 254.75,-0.54 78.15,253.12 78.24,-253.09 254.74,0.63 -206.39,-155.89 79.29,-252.73"
         style="fill:#f5f7fa;fill-opacity:1;fill-rule:nonzero;stroke:none"
         id="path24" />
      <path
         d="m 4130.36,5011.63 -205.79,156.75 -205.75,-156.82 79.21,252.76 -206.45,155.81 254.75,-0.54 78.15,253.12 78.23,-253.09 254.75,0.63 -206.4,-155.89 79.3,-252.73"
         style="fill:#f5f7fa;fill-opacity:1;fill-rule:nonzero;stroke:none"
         id="path26" />
    </g>
  </g>
</svg>
