<svg version="1.1" id="Layer_1" xmlns="http://www.w3.org/2000/svg" xmlns:xlink="http://www.w3.org/1999/xlink" x="0px" y="0px"
	 width="100%" viewBox="0 0 640 320" enable-background="new 0 0 640 320" xml:space="preserve">
<path fill="#00008B" opacity="1.000000" stroke="none" 
	d="
M321.000000,1.000000 
	C427.634735,1.000000 534.269470,1.000000 640.952087,1.000000 
	C640.952087,107.602753 640.952087,214.205536 640.952087,320.904175 
	C427.666687,320.904175 214.333344,320.904175 1.000000,320.904175 
	C1.000000,267.899689 1.000000,214.915878 1.247205,161.422424 
	C1.659908,160.887970 1.825406,160.863159 2.456589,160.898499 
	C10.569058,160.918533 18.215843,160.878448 26.327751,160.897278 
	C33.445683,161.764755 39.362556,159.962479 45.334255,156.918015 
	C73.417442,142.600754 101.661354,128.598694 129.855301,114.498924 
	C131.120697,113.866096 132.457993,113.377083 134.314606,112.585350 
	C134.314606,129.019119 134.314606,144.779404 134.314606,160.838348 
	C138.116791,160.838348 141.562042,160.838348 145.470932,160.907700 
	C156.287430,160.930786 166.640305,160.884506 177.447845,160.915710 
	C181.026031,160.993179 184.149536,160.993179 187.825912,160.993179 
	C187.825912,144.772247 187.825912,128.937668 187.825912,112.490585 
	C189.972687,113.487160 191.457870,114.132507 192.904678,114.854752 
	C222.589890,129.673492 252.265381,144.511749 281.967224,159.297089 
	C283.555908,160.087921 285.355103,160.917709 287.063049,160.932129 
	C298.037750,161.024826 309.014343,160.894958 320.382751,160.676788 
	C320.796234,156.634262 320.817261,152.753174 320.899750,148.465134 
	C321.717834,144.420364 320.214172,142.540634 316.812988,140.876785 
	C296.230988,130.808182 275.790131,120.451004 255.310104,110.174255 
	C254.299606,109.667206 253.364288,109.010338 251.106659,107.644333 
	C275.316803,107.644333 297.923157,107.644333 320.838257,107.644333 
	C320.838257,103.886734 320.838257,100.439949 320.907654,96.529510 
	C320.930817,85.713028 320.884613,75.360199 320.916016,64.552658 
	C320.993652,60.971371 320.993652,57.844795 320.993652,54.195869 
	C297.922241,54.195869 275.250458,54.195869 252.578690,54.195869 
	C253.787140,52.609253 255.152267,51.820747 256.560059,51.117680 
	C272.753601,43.030476 288.963257,34.975533 305.146271,26.867390 
	C310.335083,24.267633 317.515594,22.765070 320.045959,18.527767 
	C322.701416,14.081007 320.870361,6.955073 321.000000,1.000000 
M160.023621,195.957901 
	C157.279327,204.470047 154.535049,212.982178 151.736313,221.663193 
	C142.461716,218.213684 133.504868,214.882370 123.556557,211.182281 
	C129.519394,220.196167 134.787918,228.160477 140.125961,236.229843 
	C131.614655,241.352127 123.528740,246.218399 114.523003,251.638245 
	C125.264603,252.621735 134.616043,253.477951 144.267365,254.361618 
	C142.913498,264.305939 141.640396,273.656982 140.210159,284.162262 
	C147.516022,276.516541 154.119186,269.606201 161.024445,262.379730 
	C167.900650,269.590271 174.489120,276.499054 181.752869,284.115967 
	C180.335114,273.487335 179.071869,264.017059 177.785675,254.374710 
	C187.722427,253.474091 197.026550,252.630814 207.745346,251.659317 
	C198.364899,246.062439 190.208893,241.196121 181.895218,236.235733 
	C187.246475,228.094467 192.301117,220.404495 197.355759,212.714508 
	C197.117508,212.436111 196.879257,212.157715 196.641006,211.879318 
	C187.925705,215.125595 179.210419,218.371887 170.295135,221.692642 
	C167.517334,213.171478 164.931076,205.117691 162.216339,197.107483 
	C161.962143,196.357437 160.896667,195.882339 160.023621,195.957901 
M540.611267,118.292519 
	C537.407837,120.253860 534.204407,122.215202 530.259399,124.630585 
	C535.430237,125.188637 539.717896,125.651375 544.093079,126.123558 
	C543.478455,130.807709 542.942627,134.891235 542.406860,138.974747 
	C542.664429,139.200073 542.921997,139.425400 543.179565,139.650711 
	C546.010437,136.284271 548.841370,132.917831 552.095581,129.048004 
	C555.727844,133.003342 558.579041,136.108124 561.925171,139.751862 
	C561.275391,134.703751 560.734863,130.503983 560.180969,126.200607 
	C564.719421,125.694427 568.898010,125.228378 574.085754,124.649780 
	C569.605835,121.904999 566.008301,119.700836 562.182068,117.356613 
	C564.594666,113.620125 566.877197,110.085014 569.776489,105.594627 
	C564.712524,107.435234 560.743958,108.877686 556.607483,110.381172 
	C555.140564,106.083588 553.814880,102.199661 552.110718,97.206909 
	C550.325684,102.375641 548.965149,106.315186 547.574829,110.341095 
	C543.177185,108.732353 539.336975,107.327530 534.498230,105.557419 
	C535.994202,107.923286 537.021545,109.338203 537.826477,110.869949 
	C539.042786,113.184433 540.104065,115.580383 540.611267,118.292519 
M472.673492,73.245926 
	C475.583893,70.583664 478.494293,67.921394 482.464813,64.289383 
	C484.938538,67.354790 487.587250,70.637024 490.839447,74.667053 
	C490.154724,69.368912 489.627106,65.286217 489.049164,60.814224 
	C493.492950,60.328369 497.645508,59.874355 502.960754,59.293221 
	C498.268188,56.415604 494.670654,54.209484 491.064911,51.998348 
	C493.565094,48.127914 495.744080,44.754726 498.628235,40.289867 
	C493.481750,42.164242 489.635101,43.565201 485.515991,45.065399 
	C484.097504,40.919014 482.740082,36.951103 481.001251,31.868355 
	C479.261475,36.942390 477.903748,40.902172 476.506531,44.977180 
	C472.330475,43.506828 468.415771,42.128490 463.348816,40.344460 
	C466.355591,44.939854 468.591553,48.357204 470.965881,51.986046 
	C467.088440,54.409382 463.551056,56.620167 459.099060,59.402588 
	C464.510956,59.946552 468.707153,60.368324 472.051483,60.704472 
	C472.051483,65.470932 472.051483,69.536118 472.673492,73.245926 
M489.966766,285.474457 
	C489.745544,281.738251 489.524292,278.002045 489.298096,274.181702 
	C493.628662,273.692322 497.803558,273.220520 502.988312,272.634613 
	C498.475372,269.886444 494.864410,267.687531 491.071228,265.377655 
	C493.487732,261.608215 495.763916,258.057709 498.619781,253.602905 
	C493.610687,255.429062 489.629364,256.880524 485.506714,258.383514 
	C484.028015,254.093094 482.680481,250.183319 480.957916,245.185303 
	C479.200897,250.379898 477.891724,254.250488 476.569855,258.158569 
	C472.344543,256.849213 468.460480,255.645599 463.630829,254.148972 
	C466.513458,258.554657 468.732605,261.946289 470.971344,265.367889 
	C466.979614,267.839813 463.395813,270.059113 459.196594,272.659515 
	C464.380463,273.211884 468.630371,273.664764 473.072998,274.138153 
	C472.417725,278.307098 471.823486,282.087585 471.229279,285.868042 
	C471.802460,286.332397 472.375610,286.796753 472.948792,287.261108 
	C475.059021,283.736389 477.169220,280.211639 479.279449,276.686890 
	C479.884491,277.241272 480.489502,277.795654 481.094543,278.350006 
	C483.866302,280.877502 486.638092,283.404968 489.966766,285.474457 
M398.990387,153.316025 
	C400.544250,151.136230 401.898193,151.835846 403.269287,153.555496 
	C405.325684,156.134674 407.437927,158.669373 409.526428,161.222992 
	C409.913055,160.824249 410.299713,160.425522 410.686340,160.026779 
	C410.145264,155.921967 409.604187,151.817139 409.032196,147.477707 
	C413.475708,146.992615 417.679871,146.533630 422.885559,145.965317 
	C418.380951,143.173477 414.758301,140.928253 411.135498,138.682938 
	C413.283447,135.210220 415.309113,131.935226 417.334747,128.660248 
	C417.076538,128.364151 416.818329,128.068054 416.560089,127.771973 
	C412.896423,129.059952 409.232758,130.347931 405.475983,131.668640 
	C404.017151,127.405922 402.682373,123.505592 400.965820,118.489784 
	C399.197845,123.717018 397.889893,127.584068 396.542358,131.568268 
	C392.352631,130.164841 388.479462,128.867462 383.477173,127.191849 
	C386.422394,131.717422 388.639740,135.124603 390.982727,138.724808 
	C387.195801,141.031738 383.594757,143.225449 379.091339,145.968857 
	C384.433319,146.563309 388.632019,147.030533 393.082825,147.525818 
	C392.351685,151.925110 391.695953,155.870483 391.040253,159.815842 
	C391.464569,160.099152 391.888916,160.382446 392.313232,160.665756 
	C394.373627,158.397324 396.433990,156.128891 398.990387,153.316025 
M517.398865,169.570602 
	C515.958923,167.136322 514.518982,164.702042 512.298523,160.948303 
	C511.713226,168.751999 507.539062,171.036850 500.816650,170.443863 
	C507.263092,173.749741 507.946503,178.553925 505.104919,184.744339 
	C512.613953,180.948700 512.613953,180.948700 520.906067,184.409378 
	C517.523804,178.192886 519.524414,173.785583 526.078674,170.267838 
	C522.402954,170.008347 520.297913,169.859741 517.398865,169.570602 
z"/>
<path fill="#FF0000" opacity="1.000000" stroke="none" 
	d="
M176.993164,160.838226 
	C166.640305,160.884506 156.287430,160.930786 145.471832,160.449554 
	C145.009094,139.010086 145.009094,118.098122 145.009094,97.000000 
	C96.576782,97.000000 48.788391,97.000000 1.000000,97.000000 
	C1.000000,86.645775 1.000000,76.291542 1.468643,65.472610 
	C49.576351,65.007912 97.215416,65.007912 145.000000,65.007912 
	C145.000000,43.213665 145.000000,22.106833 145.000000,1.000000 
	C155.354233,1.000000 165.708450,1.000000 176.527130,1.468641 
	C176.991562,22.860836 176.991562,43.784393 176.991562,65.007370 
	C225.299728,65.007370 273.069061,65.007370 320.838379,65.007370 
	C320.884613,75.360199 320.930817,85.713028 320.449493,96.528625 
	C272.382629,96.991386 224.843277,96.991386 176.993164,96.991386 
	C176.993164,118.626869 176.993164,139.732559 176.993164,160.838226 
z"/>
<path fill="#FBF9FC" opacity="1.000000" stroke="none" 
	d="
M144.541931,1.000000 
	C145.000000,22.106833 145.000000,43.213665 145.000000,65.007912 
	C97.215416,65.007912 49.576351,65.007912 1.468643,65.003952 
	C1.000000,61.638714 1.000000,58.277424 1.459059,54.559616 
	C24.437769,54.203091 46.957420,54.203091 69.477074,54.203091 
	C69.565521,53.864883 69.653976,53.526680 69.742424,53.188473 
	C46.828285,41.792316 23.914143,30.396158 1.000000,19.000000 
	C1.000000,17.285641 1.000000,15.571283 1.336258,13.528296 
	C26.644562,25.706383 51.776188,37.908669 76.508270,50.873154 
	C86.088181,55.894909 95.646233,53.466702 105.317825,53.770081 
	C104.131653,52.616570 102.876526,51.894470 101.583641,51.247845 
	C78.098007,39.501617 54.589729,27.800484 31.127293,16.008137 
	C21.368893,11.103515 11.706208,6.008460 2.000000,1.000000 
	C13.687561,1.000000 25.375122,1.000000 37.635448,1.338280 
	C70.004791,17.575953 101.801376,33.475346 134.000000,49.575771 
	C134.000000,32.850929 134.000000,16.925465 134.000000,1.000000 
	C137.361282,1.000000 140.722580,1.000000 144.541931,1.000000 
z"/>
<path fill="#FBF9FB" opacity="1.000000" stroke="none" 
	d="
M1.000000,97.458069 
	C48.788391,97.000000 96.576782,97.000000 145.009094,97.000000 
	C145.009094,118.098122 145.009094,139.010086 145.008194,160.380203 
	C141.562042,160.838348 138.116791,160.838348 134.314606,160.838348 
	C134.314606,144.779404 134.314606,129.019119 134.314606,112.585350 
	C132.457993,113.377083 131.120697,113.866096 129.855301,114.498924 
	C101.661354,128.598694 73.417442,142.600754 45.334255,156.918015 
	C39.362556,159.962479 33.445683,161.764755 26.533802,160.615677 
	C60.647690,143.103500 95.020653,125.931839 129.393616,108.760170 
	C125.109344,107.750992 121.015892,108.014580 116.969391,107.690979 
	C110.431633,107.168167 104.666779,108.875145 98.905930,111.941689 
	C87.619171,117.949745 76.045044,123.415962 64.623390,129.172974 
	C43.733032,139.702576 22.867050,150.280548 1.990903,160.838348 
	C1.825406,160.863159 1.659908,160.887970 1.247205,160.956390 
	C1.000000,155.311966 1.000000,149.623917 1.340372,143.380875 
	C24.380590,131.449722 47.080437,120.073570 69.780281,108.697418 
	C69.656494,108.464943 69.532707,108.232475 69.408920,108.000000 
	C46.605946,108.000000 23.802973,108.000000 1.000000,108.000000 
	C1.000000,104.638710 1.000000,101.277428 1.000000,97.458069 
z"/>
<path fill="#FBF9FB" opacity="1.000000" stroke="none" 
	d="
M320.916016,64.552658 
	C273.069061,65.007370 225.299728,65.007370 176.991562,65.007370 
	C176.991562,43.784393 176.991562,22.860836 176.995789,1.468641 
	C180.361282,1.000000 183.722580,1.000000 187.441086,1.459192 
	C187.798309,17.597912 187.798309,33.277439 187.798309,49.598701 
	C190.314651,48.404636 191.955368,47.661510 193.565308,46.856758 
	C214.364456,36.459969 235.184387,26.104334 255.943726,15.628595 
	C265.358917,10.877430 274.651703,5.883690 284.000000,1.000001 
	C287.692902,1.000000 291.385834,1.000000 295.435333,1.337694 
	C261.425873,18.877056 227.059814,36.078724 192.693756,53.280392 
	C197.018661,54.249928 201.128891,54.008278 205.199738,54.305717 
	C211.544571,54.769310 217.119232,53.129227 222.795242,50.221500 
	C246.742905,37.953526 270.902527,26.100023 294.945953,14.017934 
	C303.354553,9.792521 311.651855,5.345705 320.000000,1.000000 
	C320.000000,1.000000 320.500000,1.000000 320.750000,1.000000 
	C320.870361,6.955073 322.701416,14.081007 320.045959,18.527767 
	C317.515594,22.765070 310.335083,24.267633 305.146271,26.867390 
	C288.963257,34.975533 272.753601,43.030476 256.560059,51.117680 
	C255.152267,51.820747 253.787140,52.609253 252.578690,54.195869 
	C275.250458,54.195869 297.922241,54.195869 320.993652,54.195869 
	C320.993652,57.844795 320.993652,60.971371 320.916016,64.552658 
z"/>
<path fill="#01018B" opacity="1.000000" stroke="none" 
	d="
M283.531342,1.000001 
	C274.651703,5.883690 265.358917,10.877430 255.943726,15.628595 
	C235.184387,26.104334 214.364456,36.459969 193.565308,46.856758 
	C191.955368,47.661510 190.314651,48.404636 187.798309,49.598701 
	C187.798309,33.277439 187.798309,17.597912 187.899155,1.459192 
	C219.687561,1.000000 251.375122,1.000000 283.531342,1.000001 
z"/>
<path fill="#01018B" opacity="1.000000" stroke="none" 
	d="
M133.531342,1.000000 
	C134.000000,16.925465 134.000000,32.850929 134.000000,49.575771 
	C101.801376,33.475346 70.004791,17.575953 38.104107,1.338280 
	C69.687561,1.000000 101.375122,1.000000 133.531342,1.000000 
z"/>
<path fill="#FF0606" opacity="1.000000" stroke="none" 
	d="
M319.531372,1.000000 
	C311.651855,5.345705 303.354553,9.792521 294.945953,14.017934 
	C270.902527,26.100023 246.742905,37.953526 222.795242,50.221500 
	C217.119232,53.129227 211.544571,54.769310 205.199738,54.305717 
	C201.128891,54.008278 197.018661,54.249928 192.693756,53.280392 
	C227.059814,36.078724 261.425873,18.877056 295.895966,1.337694 
	C303.687592,1.000000 311.375153,1.000000 319.531372,1.000000 
z"/>
<path fill="#01018B" opacity="1.000000" stroke="none" 
	d="
M1.000000,19.468658 
	C23.914143,30.396158 46.828285,41.792316 69.742424,53.188473 
	C69.653976,53.526680 69.565521,53.864883 69.477074,54.203091 
	C46.957420,54.203091 24.437769,54.203091 1.459059,54.101547 
	C1.000000,42.645771 1.000000,31.291544 1.000000,19.468658 
z"/>
<path fill="#01018B" opacity="1.000000" stroke="none" 
	d="
M1.000000,108.468658 
	C23.802973,108.000000 46.605946,108.000000 69.408920,108.000000 
	C69.532707,108.232475 69.656494,108.464943 69.780281,108.697418 
	C47.080437,120.073570 24.380590,131.449722 1.340372,142.912933 
	C1.000000,131.645767 1.000000,120.291542 1.000000,108.468658 
z"/>
<path fill="#FF0606" opacity="1.000000" stroke="none" 
	d="
M1.500000,1.000000 
	C11.706208,6.008460 21.368893,11.103515 31.127293,16.008137 
	C54.589729,27.800484 78.098007,39.501617 101.583641,51.247845 
	C102.876526,51.894470 104.131653,52.616570 105.317825,53.770081 
	C95.646233,53.466702 86.088181,55.894909 76.508270,50.873154 
	C51.776188,37.908669 26.644562,25.706383 1.336258,13.099834 
	C1.000000,9.000000 1.000000,5.000000 1.500000,1.000000 
z"/>
<path fill="#FBF9FC" opacity="1.000000" stroke="none" 
	d="
M177.447845,160.915710 
	C176.993164,139.732559 176.993164,118.626869 176.993164,96.991386 
	C224.843277,96.991386 272.382629,96.991386 320.380127,96.992279 
	C320.838257,100.439949 320.838257,103.886734 320.838257,107.644333 
	C297.923157,107.644333 275.316803,107.644333 251.106659,107.644333 
	C253.364288,109.010338 254.299606,109.667206 255.310104,110.174255 
	C275.790131,120.451004 296.230988,130.808182 316.812988,140.876785 
	C320.214172,142.540634 321.717834,144.420364 320.575317,148.370071 
	C295.417908,136.285767 270.458710,124.245110 245.967667,111.317596 
	C236.232803,106.179077 226.567520,108.495354 216.725708,108.288383 
	C231.408844,116.181740 246.215393,123.551376 260.985199,130.993881 
	C280.668518,140.912323 300.323273,150.887451 319.990295,160.838211 
	C309.014343,160.894958 298.037750,161.024826 287.063049,160.932129 
	C285.355103,160.917709 283.555908,160.087921 281.967224,159.297089 
	C252.265381,144.511749 222.589890,129.673492 192.904678,114.854752 
	C191.457870,114.132507 189.972687,113.487160 187.825912,112.490585 
	C187.825912,128.937668 187.825912,144.772247 187.825912,160.993179 
	C184.149536,160.993179 181.026031,160.993179 177.447845,160.915710 
z"/>
<path fill="#FBFBFD" opacity="1.000000" stroke="none" 
	d="
M160.115738,195.618744 
	C160.896667,195.882339 161.962143,196.357437 162.216339,197.107483 
	C164.931076,205.117691 167.517334,213.171478 170.295135,221.692642 
	C179.210419,218.371887 187.925705,215.125595 196.641006,211.879318 
	C196.879257,212.157715 197.117508,212.436111 197.355759,212.714508 
	C192.301117,220.404495 187.246475,228.094467 181.895218,236.235733 
	C190.208893,241.196121 198.364899,246.062439 207.745346,251.659317 
	C197.026550,252.630814 187.722427,253.474091 177.785675,254.374710 
	C179.071869,264.017059 180.335114,273.487335 181.752869,284.115967 
	C174.489120,276.499054 167.900650,269.590271 161.024445,262.379730 
	C154.119186,269.606201 147.516022,276.516541 140.210159,284.162262 
	C141.640396,273.656982 142.913498,264.305939 144.267365,254.361618 
	C134.616043,253.477951 125.264603,252.621735 114.523003,251.638245 
	C123.528740,246.218399 131.614655,241.352127 140.125961,236.229843 
	C134.787918,228.160477 129.519394,220.196167 123.556557,211.182281 
	C133.504868,214.882370 142.461716,218.213684 151.736313,221.663193 
	C154.535049,212.982178 157.279327,204.470047 160.115738,195.618744 
z"/>
<path fill="#FF0606" opacity="1.000000" stroke="none" 
	d="
M2.456589,160.898499 
	C22.867050,150.280548 43.733032,139.702576 64.623390,129.172974 
	C76.045044,123.415962 87.619171,117.949745 98.905930,111.941689 
	C104.666779,108.875145 110.431633,107.168167 116.969391,107.690979 
	C121.015892,108.014580 125.109344,107.750992 129.393616,108.760170 
	C95.020653,125.931839 60.647690,143.103500 26.068678,160.556763 
	C18.215843,160.878448 10.569058,160.918533 2.456589,160.898499 
z"/>
<path fill="#FF0606" opacity="1.000000" stroke="none" 
	d="
M320.382751,160.676788 
	C300.323273,150.887451 280.668518,140.912323 260.985199,130.993881 
	C246.215393,123.551376 231.408844,116.181740 216.725708,108.288383 
	C226.567520,108.495354 236.232803,106.179077 245.967667,111.317596 
	C270.458710,124.245110 295.417908,136.285767 320.513855,148.777023 
	C320.817261,152.753174 320.796234,156.634262 320.382751,160.676788 
z"/>
<path fill="#F6F6FB" opacity="1.000000" stroke="none" 
	d="
M540.921265,118.117111 
	C540.104065,115.580383 539.042786,113.184433 537.826477,110.869949 
	C537.021545,109.338203 535.994202,107.923286 534.498230,105.557419 
	C539.336975,107.327530 543.177185,108.732353 547.574829,110.341095 
	C548.965149,106.315186 550.325684,102.375641 552.110718,97.206909 
	C553.814880,102.199661 555.140564,106.083588 556.607483,110.381172 
	C560.743958,108.877686 564.712524,107.435234 569.776489,105.594627 
	C566.877197,110.085014 564.594666,113.620125 562.182068,117.356613 
	C566.008301,119.700836 569.605835,121.904999 574.085754,124.649780 
	C568.898010,125.228378 564.719421,125.694427 560.180969,126.200607 
	C560.734863,130.503983 561.275391,134.703751 561.925171,139.751862 
	C558.579041,136.108124 555.727844,133.003342 552.095581,129.048004 
	C548.841370,132.917831 546.010437,136.284271 543.179565,139.650711 
	C542.921997,139.425400 542.664429,139.200073 542.406860,138.974747 
	C542.942627,134.891235 543.478455,130.807709 544.093079,126.123558 
	C539.717896,125.651375 535.430237,125.188637 530.259399,124.630585 
	C534.204407,122.215202 537.407837,120.253860 540.921265,118.117111 
z"/>
<path fill="#F7F7FB" opacity="1.000000" stroke="none" 
	d="
M472.362488,73.423615 
	C472.051483,69.536118 472.051483,65.470932 472.051483,60.704472 
	C468.707153,60.368324 464.510956,59.946552 459.099060,59.402588 
	C463.551056,56.620167 467.088440,54.409382 470.965881,51.986046 
	C468.591553,48.357204 466.355591,44.939854 463.348816,40.344460 
	C468.415771,42.128490 472.330475,43.506828 476.506531,44.977180 
	C477.903748,40.902172 479.261475,36.942390 481.001251,31.868355 
	C482.740082,36.951103 484.097504,40.919014 485.515991,45.065399 
	C489.635101,43.565201 493.481750,42.164242 498.628235,40.289867 
	C495.744080,44.754726 493.565094,48.127914 491.064911,51.998348 
	C494.670654,54.209484 498.268188,56.415604 502.960754,59.293221 
	C497.645508,59.874355 493.492950,60.328369 489.049164,60.814224 
	C489.627106,65.286217 490.154724,69.368912 490.839447,74.667053 
	C487.587250,70.637024 484.938538,67.354790 482.464813,64.289383 
	C478.494293,67.921394 475.583893,70.583664 472.362488,73.423615 
z"/>
<path fill="#F7F7FB" opacity="1.000000" stroke="none" 
	d="
M489.688293,285.703430 
	C486.638092,283.404968 483.866302,280.877502 481.094543,278.350006 
	C480.489502,277.795654 479.884491,277.241272 479.279449,276.686890 
	C477.169220,280.211639 475.059021,283.736389 472.948792,287.261108 
	C472.375610,286.796753 471.802460,286.332397 471.229279,285.868042 
	C471.823486,282.087585 472.417725,278.307098 473.072998,274.138153 
	C468.630371,273.664764 464.380463,273.211884 459.196594,272.659515 
	C463.395813,270.059113 466.979614,267.839813 470.971344,265.367889 
	C468.732605,261.946289 466.513458,258.554657 463.630829,254.148972 
	C468.460480,255.645599 472.344543,256.849213 476.569855,258.158569 
	C477.891724,254.250488 479.200897,250.379898 480.957916,245.185303 
	C482.680481,250.183319 484.028015,254.093094 485.506714,258.383514 
	C489.629364,256.880524 493.610687,255.429062 498.619781,253.602905 
	C495.763916,258.057709 493.487732,261.608215 491.071228,265.377655 
	C494.864410,267.687531 498.475372,269.886444 502.988312,272.634613 
	C497.803558,273.220520 493.628662,273.692322 489.298096,274.181702 
	C489.524292,278.002045 489.745544,281.738251 489.688293,285.703430 
z"/>
<path fill="#F7F7FB" opacity="1.000000" stroke="none" 
	d="
M398.742371,153.588242 
	C396.433990,156.128891 394.373627,158.397324 392.313232,160.665756 
	C391.888916,160.382446 391.464569,160.099152 391.040253,159.815842 
	C391.695953,155.870483 392.351685,151.925110 393.082825,147.525818 
	C388.632019,147.030533 384.433319,146.563309 379.091339,145.968857 
	C383.594757,143.225449 387.195801,141.031738 390.982727,138.724808 
	C388.639740,135.124603 386.422394,131.717422 383.477173,127.191849 
	C388.479462,128.867462 392.352631,130.164841 396.542358,131.568268 
	C397.889893,127.584068 399.197845,123.717018 400.965820,118.489784 
	C402.682373,123.505592 404.017151,127.405922 405.475983,131.668640 
	C409.232758,130.347931 412.896423,129.059952 416.560089,127.771973 
	C416.818329,128.068054 417.076538,128.364151 417.334747,128.660248 
	C415.309113,131.935226 413.283447,135.210220 411.135498,138.682938 
	C414.758301,140.928253 418.380951,143.173477 422.885559,145.965317 
	C417.679871,146.533630 413.475708,146.992615 409.032196,147.477707 
	C409.604187,151.817139 410.145264,155.921967 410.686340,160.026779 
	C410.299713,160.425522 409.913055,160.824249 409.526428,161.222992 
	C407.437927,158.669373 405.325684,156.134674 403.269287,153.555496 
	C401.898193,151.835846 400.544250,151.136230 398.742371,153.588242 
z"/>
<path fill="#F6F6FB" opacity="1.000000" stroke="none" 
	d="
M517.795898,169.640869 
	C520.297913,169.859741 522.402954,170.008347 526.078674,170.267838 
	C519.524414,173.785583 517.523804,178.192886 520.906067,184.409378 
	C512.613953,180.948700 512.613953,180.948700 505.104919,184.744339 
	C507.946503,178.553925 507.263092,173.749741 500.816650,170.443863 
	C507.539062,171.036850 511.713226,168.751999 512.298523,160.948303 
	C514.518982,164.702042 515.958923,167.136322 517.795898,169.640869 
z"/>
</svg>